M48
;Layer_Color=9474304
;FILE_FORMAT=2:4
INCH,LZ
;TYPE=PLATED
T1F00S00C0.0315
T2F00S00C0.0320
T3F00S00C0.0354
T4F00S00C0.0394
T6F00S00C0.0409
T8F00S00C0.0791
%
T01
X0271Y03325
X0301
Y0382
X0271
T02
X00509Y013285
Y014285
X00799
Y013285
X01089Y013235
Y014285
X01624
Y013285
X01909
Y014285
X02199
Y013235
T03
X00689Y03831
Y0452
X022638
Y03831
T04
X018Y0254
X019
X02
X021
X00935
X00835
X00735
X00635
T06
X01564Y02765
X01664
X01764
X01864
X01964
X02064
X02164
X01464
X01364
X01264
X01164
X01064
X00964
X00864
X00764
X00664
X00564
X00464
X00364
Y03665
X00464
X00564
X00664
X00764
X00864
X00964
X01064
X01164
X01264
X01364
X01464
X01564
X01664
X01764
X01864
X01964
X02064
X02164
T08
X024087Y015833
Y025203
X014913
X012437
X003263
Y015833
X012437
X014913
M30
