G04*
G04 #@! TF.GenerationSoftware,Altium Limited,Altium Designer,21.3.2 (30)*
G04*
G04 Layer_Color=16711935*
%FSTAX24Y24*%
%MOIN*%
G70*
G04*
G04 #@! TF.SameCoordinates,70DC1E10-037C-42C7-9AD5-60C584CD1C3D*
G04*
G04*
G04 #@! TF.FilePolarity,Positive*
G04*
G01*
G75*
%ADD15C,0.0039*%
G36*
X024608Y036614D02*
X02461D01*
X024614Y036613D01*
X024618Y036613D01*
X024622Y036612D01*
X024626Y036611D01*
X024628Y036611D01*
X02463Y03661D01*
X02463D01*
X02463Y03661D01*
X024631Y03661D01*
X024633Y036609D01*
X024635Y036608D01*
X024637Y036606D01*
X024639Y036604D01*
X024642Y036601D01*
X024644Y036598D01*
Y036598D01*
X024644Y036598D01*
X024645Y036597D01*
X024645Y036595D01*
X024646Y036593D01*
X024647Y03659D01*
X024648Y036587D01*
X024649Y036583D01*
X024649Y036579D01*
Y036579D01*
Y036579D01*
Y036578D01*
X024649Y036577D01*
Y036576D01*
X024649Y036575D01*
X024648Y036572D01*
X024647Y036568D01*
X024645Y036564D01*
X024643Y03656D01*
X024642Y036558D01*
X02464Y036557D01*
X02464Y036556D01*
X02464Y036556D01*
X024639Y036556D01*
X024639Y036555D01*
X024638Y036554D01*
X024637Y036554D01*
X024635Y036553D01*
X024634Y036552D01*
X024632Y036551D01*
X02463Y03655D01*
X024628Y036549D01*
X024625Y036548D01*
X024623Y036547D01*
X02462Y036546D01*
X024617Y036546D01*
X024614Y036545D01*
X024614Y036545D01*
X024615Y036545D01*
X024616Y036544D01*
X024617Y036543D01*
X02462Y036541D01*
X024622Y03654D01*
X024624Y036539D01*
X024624Y036538D01*
X024625Y036538D01*
X024626Y036536D01*
X024628Y036534D01*
X02463Y036532D01*
X024632Y036529D01*
X024635Y036526D01*
X024637Y036522D01*
X024659Y036488D01*
X024638D01*
X024622Y036514D01*
Y036514D01*
X024621Y036515D01*
X024621Y036515D01*
X02462Y036516D01*
X024619Y036518D01*
X024618Y03652D01*
X024616Y036523D01*
X024614Y036526D01*
X024612Y036529D01*
X02461Y036531D01*
X024609Y036532D01*
X024609Y036532D01*
X024608Y036533D01*
X024607Y036535D01*
X024604Y036537D01*
X024603Y036539D01*
X024601Y03654D01*
X024601Y03654D01*
X024601Y03654D01*
X0246Y03654D01*
X024599Y036541D01*
X024598Y036542D01*
X024596Y036542D01*
X024593Y036543D01*
X024593D01*
X024593Y036543D01*
X024592D01*
X024591Y036543D01*
X02459Y036544D01*
X024589D01*
X024587Y036544D01*
X024565D01*
Y036488D01*
X024548D01*
Y036614D01*
X024607D01*
X024608Y036614D01*
D02*
G37*
G36*
X024713Y036614D02*
X024714Y036614D01*
X024716Y036614D01*
X024717Y036614D01*
X024719Y036613D01*
X024724Y036612D01*
X024728Y03661D01*
X02473Y036609D01*
X024732Y036608D01*
X024734Y036606D01*
X024736Y036605D01*
X024737Y036605D01*
X024737Y036604D01*
X024737Y036604D01*
X024738Y036603D01*
X024739Y036602D01*
X02474Y036601D01*
X024741Y036598D01*
X024743Y036595D01*
X024745Y036591D01*
X024746Y036586D01*
X024746Y036584D01*
X024747Y036581D01*
Y036581D01*
Y036581D01*
Y03658D01*
X024746Y036578D01*
X024746Y036576D01*
X024745Y036574D01*
X024745Y036571D01*
X024743Y036568D01*
X024742Y036566D01*
X024742Y036566D01*
X024741Y036565D01*
X02474Y036564D01*
X024738Y036562D01*
X024736Y036561D01*
X024734Y036559D01*
X024731Y036557D01*
X024728Y036556D01*
X024728D01*
X024729Y036556D01*
X024729Y036556D01*
X02473Y036555D01*
X024732Y036554D01*
X024735Y036553D01*
X024737Y036551D01*
X02474Y036549D01*
X024743Y036547D01*
X024745Y036544D01*
Y036544D01*
X024746Y036543D01*
X024746Y036542D01*
X024747Y03654D01*
X024749Y036538D01*
X02475Y036535D01*
X024751Y036532D01*
X024751Y036528D01*
X024752Y036524D01*
Y036524D01*
Y036523D01*
Y036522D01*
X024751Y036521D01*
X024751Y03652D01*
X024751Y036518D01*
X024751Y036516D01*
X02475Y036514D01*
X024749Y03651D01*
X024748Y036508D01*
X024747Y036505D01*
X024745Y036503D01*
X024744Y036501D01*
X024742Y036499D01*
X02474Y036497D01*
X02474Y036496D01*
X02474Y036496D01*
X024739Y036495D01*
X024738Y036495D01*
X024737Y036494D01*
X024736Y036493D01*
X024734Y036492D01*
X024732Y036491D01*
X02473Y03649D01*
X024728Y036489D01*
X024725Y036488D01*
X024723Y036487D01*
X02472Y036487D01*
X024717Y036486D01*
X024714Y036486D01*
X02471Y036486D01*
X024708D01*
X024707Y036486D01*
X024705Y036486D01*
X024704Y036486D01*
X024702Y036487D01*
X024699Y036487D01*
X024694Y036488D01*
X024692Y036489D01*
X02469Y03649D01*
X024687Y036491D01*
X024684Y036493D01*
X024682Y036495D01*
X02468Y036497D01*
X02468Y036497D01*
X024679Y036497D01*
X024679Y036498D01*
X024678Y036499D01*
X024677Y0365D01*
X024676Y036501D01*
X024675Y036502D01*
X024674Y036504D01*
X024673Y036506D01*
X024672Y036508D01*
X02467Y036513D01*
X02467Y036516D01*
X024669Y036518D01*
X024669Y036521D01*
X024669Y036524D01*
Y036524D01*
Y036525D01*
Y036525D01*
X024669Y036526D01*
Y036527D01*
X024669Y036528D01*
X024669Y036531D01*
X02467Y036535D01*
X024671Y036538D01*
X024673Y036541D01*
X024675Y036545D01*
Y036545D01*
X024675Y036545D01*
X024676Y036546D01*
X024677Y036547D01*
X024679Y036549D01*
X024682Y036551D01*
X024685Y036553D01*
X024688Y036555D01*
X024693Y036556D01*
X024692D01*
X024692Y036556D01*
X024692Y036556D01*
X024691Y036557D01*
X024689Y036557D01*
X024687Y036558D01*
X024685Y03656D01*
X024682Y036562D01*
X02468Y036564D01*
X024678Y036566D01*
X024678Y036566D01*
X024678Y036567D01*
X024677Y036568D01*
X024676Y03657D01*
X024675Y036573D01*
X024674Y036575D01*
X024674Y036578D01*
X024674Y036582D01*
Y036582D01*
Y036582D01*
Y036583D01*
X024674Y036584D01*
X024674Y036585D01*
X024674Y036587D01*
X024675Y03659D01*
X024676Y036593D01*
X024678Y036597D01*
X024679Y036599D01*
X02468Y036601D01*
X024682Y036603D01*
X024684Y036605D01*
X024684Y036605D01*
X024684Y036605D01*
X024685Y036606D01*
X024685Y036606D01*
X024686Y036607D01*
X024688Y036608D01*
X024689Y036609D01*
X02469Y03661D01*
X024692Y036611D01*
X024694Y036611D01*
X024697Y036612D01*
X024699Y036613D01*
X024704Y036614D01*
X024707Y036614D01*
X02471Y036614D01*
X024711D01*
X024713Y036614D01*
D02*
G37*
G36*
X024752Y037399D02*
X024751Y037399D01*
X024751Y037399D01*
X02475Y037398D01*
X02475Y037397D01*
X024748Y037396D01*
X024747Y037394D01*
X024746Y037392D01*
X024744Y03739D01*
X024742Y037388D01*
X02474Y037385D01*
X024738Y037382D01*
X024736Y037379D01*
X024734Y037376D01*
X024732Y037373D01*
X02473Y037369D01*
X024728Y037365D01*
X024727Y037365D01*
X024727Y037364D01*
X024726Y037363D01*
X024726Y037361D01*
X024725Y037359D01*
X024724Y037357D01*
X024722Y037355D01*
X024721Y037352D01*
X02472Y037349D01*
X024718Y037345D01*
X024716Y037342D01*
X024715Y037338D01*
X024712Y03733D01*
X024709Y037322D01*
Y037321D01*
X024709Y037321D01*
X024709Y03732D01*
X024709Y037319D01*
X024708Y037317D01*
X024708Y037316D01*
X024707Y037314D01*
X024707Y037311D01*
X024706Y037309D01*
X024706Y037306D01*
X024705Y0373D01*
X024704Y037294D01*
X024704Y037287D01*
X024688D01*
Y037287D01*
Y037288D01*
Y037288D01*
X024688Y03729D01*
Y037291D01*
X024688Y037293D01*
X024688Y037295D01*
X024688Y037297D01*
X024689Y0373D01*
X024689Y037302D01*
X02469Y037305D01*
X02469Y037308D01*
X024691Y037312D01*
X024692Y037315D01*
X024693Y037323D01*
Y037323D01*
X024694Y037324D01*
X024694Y037325D01*
X024694Y037326D01*
X024695Y037328D01*
X024696Y03733D01*
X024696Y037333D01*
X024697Y037336D01*
X024699Y037339D01*
X0247Y037342D01*
X024702Y037349D01*
X024706Y037356D01*
X024709Y037363D01*
X02471Y037363D01*
X02471Y037364D01*
X02471Y037365D01*
X024711Y037367D01*
X024712Y037368D01*
X024713Y03737D01*
X024715Y037372D01*
X024716Y037375D01*
X02472Y03738D01*
X024723Y037385D01*
X024727Y037391D01*
X024732Y037396D01*
X02467D01*
Y037411D01*
X024752D01*
Y037399D01*
D02*
G37*
G36*
X024608Y037413D02*
X02461D01*
X024614Y037413D01*
X024618Y037412D01*
X024622Y037412D01*
X024626Y037411D01*
X024628Y03741D01*
X02463Y03741D01*
X02463D01*
X02463Y037409D01*
X024631Y037409D01*
X024633Y037408D01*
X024635Y037407D01*
X024637Y037405D01*
X024639Y037403D01*
X024642Y0374D01*
X024644Y037397D01*
Y037397D01*
X024644Y037397D01*
X024645Y037396D01*
X024645Y037394D01*
X024647Y037392D01*
X024647Y037389D01*
X024648Y037386D01*
X024649Y037382D01*
X024649Y037379D01*
Y037378D01*
Y037378D01*
Y037377D01*
X024649Y037376D01*
Y037375D01*
X024649Y037374D01*
X024648Y037371D01*
X024647Y037367D01*
X024645Y037363D01*
X024643Y037359D01*
X024642Y037358D01*
X02464Y037356D01*
X02464Y037356D01*
X02464Y037355D01*
X024639Y037355D01*
X024639Y037354D01*
X024638Y037354D01*
X024637Y037353D01*
X024635Y037352D01*
X024634Y037351D01*
X024632Y03735D01*
X02463Y037349D01*
X024628Y037348D01*
X024625Y037347D01*
X024623Y037346D01*
X02462Y037345D01*
X024617Y037345D01*
X024614Y037344D01*
X024614Y037344D01*
X024615Y037344D01*
X024616Y037343D01*
X024617Y037342D01*
X024621Y03734D01*
X024622Y037339D01*
X024624Y037338D01*
X024624Y037338D01*
X024625Y037337D01*
X024626Y037335D01*
X024628Y037333D01*
X02463Y037331D01*
X024633Y037328D01*
X024635Y037325D01*
X024637Y037321D01*
X024659Y037287D01*
X024638D01*
X024622Y037313D01*
Y037313D01*
X024621Y037314D01*
X024621Y037314D01*
X024621Y037315D01*
X024619Y037317D01*
X024618Y03732D01*
X024616Y037322D01*
X024614Y037325D01*
X024612Y037328D01*
X02461Y037331D01*
X02461Y037331D01*
X024609Y037331D01*
X024608Y037333D01*
X024607Y037334D01*
X024604Y037337D01*
X024603Y037338D01*
X024601Y037339D01*
X024601Y037339D01*
X024601Y037339D01*
X0246Y03734D01*
X024599Y03734D01*
X024598Y037341D01*
X024596Y037341D01*
X024594Y037342D01*
X024593D01*
X024593Y037342D01*
X024592D01*
X024591Y037343D01*
X02459Y037343D01*
X024589D01*
X024587Y037343D01*
X024565D01*
Y037287D01*
X024548D01*
Y037413D01*
X024607D01*
X024608Y037413D01*
D02*
G37*
G36*
X017545Y035504D02*
X017547D01*
X017548Y035503D01*
X017552Y035503D01*
X017555Y035502D01*
X017559Y0355D01*
X017563Y035498D01*
X017565Y035497D01*
X017567Y035495D01*
X017567Y035495D01*
X017568Y035495D01*
X017568Y035494D01*
X017569Y035494D01*
X01757Y035493D01*
X01757Y035492D01*
X017572Y035489D01*
X017574Y035486D01*
X017576Y035482D01*
X017578Y035477D01*
X017579Y035472D01*
X017563Y035471D01*
Y035471D01*
X017563Y035471D01*
X017563Y035473D01*
X017563Y035474D01*
X017562Y035476D01*
X017561Y035478D01*
X01756Y035481D01*
X017559Y035483D01*
X017557Y035484D01*
X017557Y035485D01*
X017556Y035485D01*
X017555Y035486D01*
X017553Y035488D01*
X017551Y035489D01*
X017548Y03549D01*
X017545Y035491D01*
X017542Y035491D01*
X017541D01*
X017539Y035491D01*
X017538Y03549D01*
X017535Y03549D01*
X017533Y035489D01*
X017531Y035488D01*
X017529Y035487D01*
X017529Y035487D01*
X017528Y035486D01*
X017526Y035485D01*
X017525Y035483D01*
X017523Y035481D01*
X017521Y035478D01*
X017519Y035475D01*
X017517Y035471D01*
Y035471D01*
X017517Y035471D01*
X017517Y03547D01*
X017516Y035469D01*
X017516Y035468D01*
X017516Y035467D01*
X017516Y035465D01*
X017515Y035464D01*
X017515Y035462D01*
X017514Y035459D01*
X017514Y035457D01*
X017514Y035455D01*
X017513Y035452D01*
X017513Y035449D01*
X017513Y035445D01*
Y035442D01*
X017513Y035442D01*
X017514Y035443D01*
X017515Y035445D01*
X017517Y035447D01*
X017519Y035449D01*
X017521Y035451D01*
X017524Y035453D01*
X017527Y035455D01*
X017527D01*
X017527Y035455D01*
X017528Y035455D01*
X01753Y035456D01*
X017532Y035457D01*
X017534Y035458D01*
X017537Y035458D01*
X01754Y035459D01*
X017544Y035459D01*
X017545D01*
X017546Y035459D01*
X017548Y035459D01*
X017549Y035458D01*
X017551Y035458D01*
X017553Y035457D01*
X017557Y035456D01*
X017559Y035455D01*
X017561Y035454D01*
X017563Y035453D01*
X017566Y035451D01*
X017568Y035449D01*
X01757Y035447D01*
X01757Y035447D01*
X017571Y035447D01*
X017571Y035446D01*
X017572Y035445D01*
X017573Y035444D01*
X017573Y035443D01*
X017574Y035441D01*
X017575Y035439D01*
X017577Y035437D01*
X017577Y035435D01*
X017578Y035433D01*
X017579Y03543D01*
X01758Y035427D01*
X01758Y035424D01*
X017581Y035421D01*
X017581Y035418D01*
Y035418D01*
Y035417D01*
Y035417D01*
Y035416D01*
X017581Y035415D01*
Y035414D01*
X01758Y035411D01*
X01758Y035407D01*
X017579Y035404D01*
X017577Y0354D01*
X017576Y035396D01*
Y035396D01*
X017575Y035396D01*
X017575Y035395D01*
X017575Y035394D01*
X017574Y035393D01*
X017572Y03539D01*
X01757Y035388D01*
X017568Y035385D01*
X017565Y035382D01*
X017562Y03538D01*
X017561D01*
X017561Y03538D01*
X017561Y03538D01*
X01756Y03538D01*
X017558Y035379D01*
X017556Y035378D01*
X017553Y035377D01*
X017549Y035376D01*
X017545Y035375D01*
X017541Y035375D01*
X01754D01*
X017539Y035375D01*
X017538D01*
X017536Y035375D01*
X017535Y035376D01*
X017532Y035376D01*
X01753Y035377D01*
X017528Y035378D01*
X017525Y035378D01*
X017522Y03538D01*
X01752Y035381D01*
X017517Y035383D01*
X017515Y035385D01*
X017512Y035387D01*
X01751Y035389D01*
X01751Y035389D01*
X017509Y03539D01*
X017509Y035391D01*
X017508Y035392D01*
X017507Y035394D01*
X017506Y035395D01*
X017505Y035398D01*
X017504Y0354D01*
X017502Y035403D01*
X017501Y035407D01*
X0175Y035411D01*
X0175Y035415D01*
X017499Y03542D01*
X017498Y035425D01*
X017498Y03543D01*
X017498Y035436D01*
Y035436D01*
Y035436D01*
Y035437D01*
Y035438D01*
X017498Y035439D01*
Y035442D01*
X017498Y035445D01*
X017498Y035448D01*
X017499Y035452D01*
X017499Y035456D01*
X0175Y035461D01*
X017501Y035465D01*
X017502Y035469D01*
X017503Y035474D01*
X017505Y035478D01*
X017507Y035482D01*
X017509Y035486D01*
X017511Y035489D01*
X017511Y035489D01*
X017512Y03549D01*
X017512Y03549D01*
X017513Y035492D01*
X017514Y035493D01*
X017516Y035494D01*
X017518Y035495D01*
X017519Y035496D01*
X017522Y035498D01*
X017524Y035499D01*
X017527Y0355D01*
X017529Y035502D01*
X017533Y035502D01*
X017536Y035503D01*
X017539Y035504D01*
X017543Y035504D01*
X017544D01*
X017545Y035504D01*
D02*
G37*
G36*
X017438Y035503D02*
X017439D01*
X017443Y035503D01*
X017447Y035502D01*
X017452Y035502D01*
X017456Y035501D01*
X017458Y0355D01*
X017459Y0355D01*
X017459D01*
X01746Y0355D01*
X017461Y035499D01*
X017462Y035498D01*
X017464Y035497D01*
X017466Y035495D01*
X017469Y035493D01*
X017471Y035491D01*
X017473Y035488D01*
Y035488D01*
X017473Y035487D01*
X017474Y035486D01*
X017475Y035484D01*
X017476Y035482D01*
X017477Y035479D01*
X017478Y035476D01*
X017478Y035473D01*
X017478Y035469D01*
Y035469D01*
Y035468D01*
Y035467D01*
X017478Y035467D01*
Y035465D01*
X017478Y035464D01*
X017477Y035461D01*
X017476Y035457D01*
X017475Y035453D01*
X017473Y03545D01*
X017471Y035448D01*
X01747Y035446D01*
X01747Y035446D01*
X017469Y035446D01*
X017469Y035445D01*
X017468Y035445D01*
X017467Y035444D01*
X017466Y035443D01*
X017465Y035442D01*
X017463Y035441D01*
X017461Y03544D01*
X017459Y035439D01*
X017457Y035438D01*
X017455Y035437D01*
X017452Y035437D01*
X017449Y035436D01*
X017446Y035435D01*
X017443Y035435D01*
X017443Y035434D01*
X017444Y035434D01*
X017445Y035433D01*
X017447Y035433D01*
X01745Y035431D01*
X017452Y035429D01*
X017453Y035428D01*
X017453Y035428D01*
X017454Y035427D01*
X017456Y035425D01*
X017458Y035424D01*
X01746Y035421D01*
X017462Y035418D01*
X017464Y035415D01*
X017467Y035411D01*
X017488Y035377D01*
X017468D01*
X017451Y035403D01*
Y035404D01*
X017451Y035404D01*
X01745Y035405D01*
X01745Y035405D01*
X017449Y035407D01*
X017447Y03541D01*
X017445Y035413D01*
X017443Y035415D01*
X017441Y035418D01*
X017439Y035421D01*
X017439Y035421D01*
X017438Y035422D01*
X017438Y035423D01*
X017436Y035424D01*
X017434Y035427D01*
X017432Y035428D01*
X017431Y035429D01*
X01743Y035429D01*
X01743Y035429D01*
X017429Y03543D01*
X017428Y03543D01*
X017427Y035431D01*
X017426Y035431D01*
X017423Y035432D01*
X017423D01*
X017422Y035433D01*
X017422D01*
X017421Y035433D01*
X017419Y035433D01*
X017418D01*
X017416Y035433D01*
X017395D01*
Y035377D01*
X017378D01*
Y035503D01*
X017436D01*
X017438Y035503D01*
D02*
G37*
G36*
X017575Y034637D02*
X017525D01*
X017518Y034603D01*
X017518Y034603D01*
X017519Y034603D01*
X017519Y034604D01*
X01752Y034604D01*
X017521Y034605D01*
X017523Y034606D01*
X017526Y034607D01*
X017529Y034608D01*
X017533Y03461D01*
X017538Y034611D01*
X01754Y034611D01*
X017544D01*
X017545Y034611D01*
X017546Y034611D01*
X017548Y03461D01*
X01755Y03461D01*
X017552Y03461D01*
X017556Y034608D01*
X017558Y034607D01*
X017561Y034606D01*
X017563Y034605D01*
X017566Y034603D01*
X017568Y034602D01*
X01757Y0346D01*
X01757Y034599D01*
X01757Y034599D01*
X017571Y034598D01*
X017572Y034598D01*
X017573Y034596D01*
X017574Y034595D01*
X017575Y034593D01*
X017576Y034592D01*
X017577Y03459D01*
X017578Y034587D01*
X017579Y034585D01*
X01758Y034582D01*
X01758Y03458D01*
X017581Y034576D01*
X017581Y034573D01*
X017581Y03457D01*
Y03457D01*
Y034569D01*
Y034568D01*
X017581Y034567D01*
X017581Y034566D01*
X017581Y034564D01*
X01758Y034562D01*
X01758Y03456D01*
X017579Y034555D01*
X017577Y03455D01*
X017576Y034548D01*
X017575Y034546D01*
X017573Y034543D01*
X017571Y034541D01*
X017571Y03454D01*
X017571Y03454D01*
X01757Y034539D01*
X017569Y034538D01*
X017568Y034537D01*
X017566Y034536D01*
X017565Y034534D01*
X017563Y034533D01*
X01756Y034531D01*
X017558Y03453D01*
X017555Y034529D01*
X017552Y034528D01*
X017549Y034527D01*
X017546Y034526D01*
X017542Y034525D01*
X017538Y034525D01*
X017537D01*
X017535Y034525D01*
X017534Y034526D01*
X017532Y034526D01*
X01753Y034526D01*
X017528Y034527D01*
X017524Y034528D01*
X017519Y034529D01*
X017517Y03453D01*
X017514Y034532D01*
X017512Y034533D01*
X01751Y034535D01*
X01751Y034535D01*
X017509Y034535D01*
X017509Y034536D01*
X017508Y034537D01*
X017507Y034537D01*
X017507Y034539D01*
X017505Y03454D01*
X017505Y034542D01*
X017503Y034543D01*
X017502Y034545D01*
X0175Y03455D01*
X017499Y034555D01*
X017498Y034558D01*
X017498Y03456D01*
X017514Y034562D01*
Y034562D01*
Y034561D01*
X017514Y034561D01*
X017514Y03456D01*
X017515Y034558D01*
X017516Y034555D01*
X017517Y034552D01*
X017518Y034549D01*
X01752Y034546D01*
X017522Y034544D01*
X017523Y034544D01*
X017523Y034543D01*
X017525Y034542D01*
X017527Y034541D01*
X017529Y03454D01*
X017532Y034539D01*
X017535Y034538D01*
X017538Y034538D01*
X017539D01*
X01754Y034538D01*
X017542Y034538D01*
X017545Y034539D01*
X017548Y03454D01*
X017551Y034541D01*
X017554Y034544D01*
X017556Y034545D01*
X017557Y034546D01*
X017557Y034547D01*
X017558Y034547D01*
X017558Y034547D01*
X017558Y034548D01*
X01756Y03455D01*
X017561Y034552D01*
X017562Y034556D01*
X017564Y034559D01*
X017565Y034564D01*
X017565Y034566D01*
Y034569D01*
Y034569D01*
Y034569D01*
Y03457D01*
X017565Y034571D01*
Y034572D01*
X017565Y034573D01*
X017564Y034576D01*
X017563Y03458D01*
X017562Y034583D01*
X01756Y034586D01*
X017558Y03459D01*
Y03459D01*
X017557Y03459D01*
X017556Y034591D01*
X017555Y034592D01*
X017552Y034594D01*
X01755Y034595D01*
X017546Y034596D01*
X017542Y034597D01*
X01754Y034597D01*
X017537D01*
X017535Y034597D01*
X017534Y034597D01*
X017531Y034596D01*
X017529Y034596D01*
X017527Y034595D01*
X017524Y034594D01*
X017524Y034594D01*
X017524Y034593D01*
X017522Y034592D01*
X017521Y034592D01*
X01752Y03459D01*
X017518Y034589D01*
X017516Y034587D01*
X017515Y034585D01*
X017501Y034587D01*
X017513Y034652D01*
X017575D01*
Y034637D01*
D02*
G37*
G36*
X017437Y034653D02*
X017439D01*
X017443Y034653D01*
X017447Y034653D01*
X017451Y034652D01*
X017455Y034651D01*
X017457Y034651D01*
X017459Y03465D01*
X017459D01*
X017459Y03465D01*
X01746Y034649D01*
X017462Y034649D01*
X017464Y034647D01*
X017466Y034646D01*
X017468Y034643D01*
X017471Y034641D01*
X017473Y034638D01*
Y034638D01*
X017473Y034638D01*
X017474Y034637D01*
X017474Y034635D01*
X017475Y034632D01*
X017476Y03463D01*
X017477Y034626D01*
X017478Y034623D01*
X017478Y034619D01*
Y034619D01*
Y034618D01*
Y034618D01*
X017478Y034617D01*
Y034616D01*
X017478Y034614D01*
X017477Y034611D01*
X017476Y034608D01*
X017474Y034604D01*
X017472Y0346D01*
X017471Y034598D01*
X017469Y034596D01*
X017469Y034596D01*
X017469Y034596D01*
X017468Y034595D01*
X017468Y034595D01*
X017467Y034594D01*
X017466Y034593D01*
X017464Y034592D01*
X017463Y034591D01*
X017461Y03459D01*
X017459Y03459D01*
X017457Y034588D01*
X017454Y034588D01*
X017452Y034587D01*
X017449Y034586D01*
X017446Y034585D01*
X017443Y034585D01*
X017443Y034585D01*
X017444Y034584D01*
X017445Y034584D01*
X017446Y034583D01*
X017449Y034581D01*
X017451Y03458D01*
X017453Y034578D01*
X017453Y034578D01*
X017454Y034577D01*
X017455Y034576D01*
X017457Y034574D01*
X017459Y034571D01*
X017461Y034569D01*
X017464Y034565D01*
X017466Y034562D01*
X017488Y034527D01*
X017467D01*
X017451Y034554D01*
Y034554D01*
X01745Y034554D01*
X01745Y034555D01*
X017449Y034556D01*
X017448Y034558D01*
X017447Y03456D01*
X017445Y034563D01*
X017443Y034566D01*
X017441Y034568D01*
X017439Y034571D01*
X017439Y034571D01*
X017438Y034572D01*
X017437Y034573D01*
X017436Y034574D01*
X017433Y034577D01*
X017432Y034578D01*
X01743Y034579D01*
X01743Y03458D01*
X01743Y03458D01*
X017429Y03458D01*
X017428Y034581D01*
X017427Y034581D01*
X017425Y034582D01*
X017422Y034583D01*
X017422D01*
X017422Y034583D01*
X017421D01*
X01742Y034583D01*
X017419Y034583D01*
X017418D01*
X017416Y034583D01*
X017394D01*
Y034527D01*
X017377D01*
Y034653D01*
X017436D01*
X017437Y034653D01*
D02*
G37*
G36*
X017564Y033771D02*
X017581D01*
Y033757D01*
X017564D01*
Y033726D01*
X017548D01*
Y033757D01*
X017493D01*
Y033771D01*
X017551Y033852D01*
X017564D01*
Y033771D01*
D02*
G37*
G36*
X017438Y033852D02*
X01744D01*
X017443Y033852D01*
X017447Y033851D01*
X017452Y033851D01*
X017456Y03385D01*
X017458Y033849D01*
X017459Y033849D01*
X01746D01*
X01746Y033849D01*
X017461Y033848D01*
X017463Y033847D01*
X017465Y033846D01*
X017467Y033845D01*
X017469Y033842D01*
X017471Y03384D01*
X017473Y033837D01*
Y033837D01*
X017474Y033837D01*
X017474Y033835D01*
X017475Y033834D01*
X017476Y033831D01*
X017477Y033828D01*
X017478Y033825D01*
X017479Y033822D01*
X017479Y033818D01*
Y033818D01*
Y033817D01*
Y033817D01*
X017479Y033816D01*
Y033814D01*
X017478Y033813D01*
X017478Y03381D01*
X017477Y033806D01*
X017475Y033803D01*
X017473Y033799D01*
X017471Y033797D01*
X01747Y033795D01*
X01747Y033795D01*
X01747Y033795D01*
X017469Y033794D01*
X017468Y033794D01*
X017467Y033793D01*
X017466Y033792D01*
X017465Y033791D01*
X017463Y03379D01*
X017462Y033789D01*
X01746Y033788D01*
X017457Y033787D01*
X017455Y033786D01*
X017452Y033786D01*
X01745Y033785D01*
X017447Y033784D01*
X017443Y033784D01*
X017444Y033784D01*
X017444Y033783D01*
X017445Y033782D01*
X017447Y033782D01*
X01745Y03378D01*
X017452Y033778D01*
X017453Y033777D01*
X017454Y033777D01*
X017455Y033776D01*
X017456Y033775D01*
X017458Y033773D01*
X01746Y03377D01*
X017462Y033768D01*
X017465Y033764D01*
X017467Y033761D01*
X017489Y033726D01*
X017468D01*
X017451Y033753D01*
Y033753D01*
X017451Y033753D01*
X017451Y033754D01*
X01745Y033754D01*
X017449Y033756D01*
X017447Y033759D01*
X017445Y033762D01*
X017443Y033765D01*
X017441Y033767D01*
X017439Y03377D01*
X017439Y03377D01*
X017439Y033771D01*
X017438Y033772D01*
X017437Y033773D01*
X017434Y033776D01*
X017432Y033777D01*
X017431Y033778D01*
X017431Y033778D01*
X01743Y033779D01*
X01743Y033779D01*
X017428Y03378D01*
X017427Y03378D01*
X017426Y033781D01*
X017423Y033782D01*
X017423D01*
X017423Y033782D01*
X017422D01*
X017421Y033782D01*
X01742Y033782D01*
X017418D01*
X017416Y033782D01*
X017395D01*
Y033726D01*
X017378D01*
Y033852D01*
X017437D01*
X017438Y033852D01*
D02*
G37*
G36*
X017542Y033104D02*
X017544Y033103D01*
X017547Y033103D01*
X01755Y033102D01*
X017553Y033101D01*
X017557Y033099D01*
X017557D01*
X017557Y033099D01*
X017558Y033098D01*
X01756Y033097D01*
X017562Y033096D01*
X017564Y033094D01*
X017566Y033092D01*
X017568Y03309D01*
X01757Y033087D01*
X01757Y033087D01*
X017571Y033086D01*
X017571Y033084D01*
X017572Y033082D01*
X017573Y03308D01*
X017574Y033077D01*
X017575Y033074D01*
X017575Y033071D01*
Y033071D01*
Y033069D01*
X017575Y033068D01*
X017574Y033066D01*
X017574Y033064D01*
X017573Y033061D01*
X017572Y033059D01*
X01757Y033056D01*
X01757Y033056D01*
X017569Y033055D01*
X017568Y033054D01*
X017567Y033052D01*
X017565Y033051D01*
X017563Y033049D01*
X01756Y033047D01*
X017557Y033045D01*
X017557D01*
X017558Y033045D01*
X017558Y033045D01*
X017559Y033045D01*
X017561Y033044D01*
X017564Y033043D01*
X017567Y033042D01*
X017569Y03304D01*
X017572Y033037D01*
X017575Y033035D01*
X017575Y033034D01*
X017576Y033033D01*
X017577Y033031D01*
X017578Y033029D01*
X017579Y033026D01*
X01758Y033023D01*
X017581Y033019D01*
X017581Y033014D01*
Y033014D01*
Y033014D01*
Y033013D01*
X017581Y033012D01*
X017581Y03301D01*
X01758Y033009D01*
X01758Y033007D01*
X017579Y033005D01*
X017578Y033D01*
X017577Y032998D01*
X017576Y032996D01*
X017574Y032993D01*
X017573Y032991D01*
X017571Y032989D01*
X017569Y032987D01*
X017569Y032986D01*
X017568Y032986D01*
X017567Y032985D01*
X017567Y032985D01*
X017565Y032984D01*
X017564Y032983D01*
X017562Y032982D01*
X01756Y032981D01*
X017558Y03298D01*
X017556Y032979D01*
X017554Y032978D01*
X017551Y032977D01*
X017548Y032976D01*
X017545Y032976D01*
X017542Y032975D01*
X017538Y032975D01*
X017537D01*
X017536Y032975D01*
X017534Y032975D01*
X017533Y032976D01*
X017531Y032976D01*
X017529Y032976D01*
X017524Y032977D01*
X01752Y032979D01*
X017517Y03298D01*
X017515Y032982D01*
X017513Y032983D01*
X017511Y032985D01*
X017511Y032985D01*
X01751Y032985D01*
X01751Y032986D01*
X017509Y032987D01*
X017508Y032988D01*
X017507Y032989D01*
X017506Y03299D01*
X017505Y032992D01*
X017504Y032994D01*
X017503Y032995D01*
X017501Y033D01*
X017499Y033005D01*
X017499Y033008D01*
X017498Y033011D01*
X017514Y033013D01*
Y033012D01*
X017514Y033012D01*
X017514Y033011D01*
X017514Y03301D01*
X017515Y033009D01*
X017515Y033008D01*
X017516Y033005D01*
X017517Y033002D01*
X017519Y032999D01*
X017521Y032996D01*
X017523Y032993D01*
X017523Y032993D01*
X017524Y032993D01*
X017525Y032992D01*
X017527Y032991D01*
X017529Y03299D01*
X017532Y032989D01*
X017535Y032988D01*
X017539Y032988D01*
X01754D01*
X01754Y032988D01*
X017542Y032988D01*
X017545Y032989D01*
X017548Y03299D01*
X017551Y032991D01*
X017554Y032993D01*
X017557Y032995D01*
X017557Y032996D01*
X017558Y032997D01*
X017559Y032998D01*
X017561Y033001D01*
X017562Y033003D01*
X017563Y033006D01*
X017564Y03301D01*
X017565Y033014D01*
Y033014D01*
Y033015D01*
Y033015D01*
X017564Y033016D01*
X017564Y033018D01*
X017564Y03302D01*
X017563Y033023D01*
X017562Y033026D01*
X01756Y033029D01*
X017557Y033032D01*
X017557Y033032D01*
X017556Y033033D01*
X017555Y033034D01*
X017553Y033035D01*
X01755Y033036D01*
X017547Y033037D01*
X017544Y033038D01*
X01754Y033039D01*
X017538D01*
X017537Y033038D01*
X017535Y033038D01*
X017533Y033038D01*
X017531Y033037D01*
X017529Y033037D01*
X017531Y033051D01*
X017532D01*
X017532Y03305D01*
X017535D01*
X017537Y033051D01*
X017539Y033051D01*
X017542Y033052D01*
X017545Y033053D01*
X017548Y033054D01*
X017551Y033055D01*
X017551D01*
X017551Y033056D01*
X017552Y033056D01*
X017553Y033058D01*
X017555Y033059D01*
X017556Y033062D01*
X017558Y033064D01*
X017559Y033067D01*
X017559Y033069D01*
Y033071D01*
Y033071D01*
Y033072D01*
Y033073D01*
X017559Y033074D01*
X017558Y033076D01*
X017557Y033078D01*
X017557Y033081D01*
X017555Y033083D01*
X017553Y033085D01*
X017553Y033086D01*
X017552Y033086D01*
X017551Y033087D01*
X017549Y033088D01*
X017547Y033089D01*
X017544Y03309D01*
X017541Y033091D01*
X017538Y033091D01*
X017537D01*
X017535Y033091D01*
X017533Y03309D01*
X017531Y03309D01*
X017528Y033089D01*
X017526Y033087D01*
X017523Y033085D01*
X017523Y033085D01*
X017522Y033084D01*
X017521Y033083D01*
X01752Y033081D01*
X017519Y033079D01*
X017517Y033076D01*
X017516Y033072D01*
X017516Y033068D01*
X0175Y033071D01*
Y033071D01*
X0175Y033072D01*
X0175Y033073D01*
X017501Y033074D01*
X017501Y033075D01*
X017502Y033076D01*
X017503Y03308D01*
X017504Y033084D01*
X017507Y033088D01*
X017509Y033092D01*
X017513Y033095D01*
X017513Y033095D01*
X017513Y033096D01*
X017514Y033096D01*
X017515Y033096D01*
X017516Y033097D01*
X017517Y033098D01*
X017518Y033099D01*
X01752Y0331D01*
X017523Y033101D01*
X017528Y033102D01*
X017533Y033103D01*
X017535Y033104D01*
X01754D01*
X017542Y033104D01*
D02*
G37*
G36*
X017438Y033103D02*
X017439D01*
X017443Y033103D01*
X017447Y033102D01*
X017452Y033102D01*
X017456Y033101D01*
X017458Y0331D01*
X017459Y0331D01*
X017459D01*
X01746Y0331D01*
X017461Y033099D01*
X017462Y033098D01*
X017464Y033097D01*
X017466Y033095D01*
X017469Y033093D01*
X017471Y033091D01*
X017473Y033088D01*
Y033088D01*
X017473Y033087D01*
X017474Y033086D01*
X017475Y033084D01*
X017476Y033082D01*
X017477Y033079D01*
X017478Y033076D01*
X017478Y033073D01*
X017478Y033069D01*
Y033069D01*
Y033068D01*
Y033067D01*
X017478Y033067D01*
Y033065D01*
X017478Y033064D01*
X017477Y033061D01*
X017476Y033057D01*
X017475Y033053D01*
X017473Y03305D01*
X017471Y033048D01*
X01747Y033046D01*
X01747Y033046D01*
X017469Y033046D01*
X017469Y033045D01*
X017468Y033045D01*
X017467Y033044D01*
X017466Y033043D01*
X017465Y033042D01*
X017463Y033041D01*
X017461Y03304D01*
X017459Y033039D01*
X017457Y033038D01*
X017455Y033037D01*
X017452Y033037D01*
X017449Y033036D01*
X017446Y033035D01*
X017443Y033035D01*
X017443Y033034D01*
X017444Y033034D01*
X017445Y033033D01*
X017447Y033033D01*
X01745Y033031D01*
X017452Y033029D01*
X017453Y033028D01*
X017453Y033028D01*
X017454Y033027D01*
X017456Y033025D01*
X017458Y033024D01*
X01746Y033021D01*
X017462Y033018D01*
X017464Y033015D01*
X017467Y033011D01*
X017488Y032977D01*
X017468D01*
X017451Y033003D01*
Y033004D01*
X017451Y033004D01*
X01745Y033005D01*
X01745Y033005D01*
X017449Y033007D01*
X017447Y03301D01*
X017445Y033013D01*
X017443Y033015D01*
X017441Y033018D01*
X017439Y033021D01*
X017439Y033021D01*
X017438Y033022D01*
X017438Y033023D01*
X017436Y033024D01*
X017434Y033027D01*
X017432Y033028D01*
X017431Y033029D01*
X01743Y033029D01*
X01743Y033029D01*
X017429Y03303D01*
X017428Y03303D01*
X017427Y033031D01*
X017426Y033031D01*
X017423Y033032D01*
X017423D01*
X017422Y033033D01*
X017422D01*
X017421Y033033D01*
X017419Y033033D01*
X017418D01*
X017416Y033033D01*
X017395D01*
Y032977D01*
X017378D01*
Y033103D01*
X017436D01*
X017438Y033103D01*
D02*
G37*
G36*
X017544Y032302D02*
X017545Y032302D01*
X017547Y032302D01*
X017549Y032302D01*
X017551Y032301D01*
X017556Y0323D01*
X01756Y032298D01*
X017563Y032297D01*
X017565Y032296D01*
X017567Y032294D01*
X017569Y032292D01*
X01757Y032292D01*
X01757Y032292D01*
X01757Y032291D01*
X017571Y032291D01*
X017572Y03229D01*
X017573Y032288D01*
X017574Y032287D01*
X017575Y032286D01*
X017577Y032282D01*
X017578Y032278D01*
X017579Y032276D01*
X01758Y032273D01*
X01758Y03227D01*
X01758Y032268D01*
Y032267D01*
Y032266D01*
X01758Y032265D01*
X01758Y032263D01*
X017579Y032261D01*
X017579Y032258D01*
X017578Y032255D01*
X017577Y032253D01*
X017577Y032252D01*
X017576Y032251D01*
X017576Y03225D01*
X017574Y032248D01*
X017573Y032246D01*
X017571Y032243D01*
X017569Y03224D01*
X017566Y032237D01*
X017566Y032237D01*
X017565Y032236D01*
X017564Y032235D01*
X017563Y032234D01*
X017562Y032233D01*
X017561Y032231D01*
X017559Y03223D01*
X017558Y032228D01*
X017556Y032227D01*
X017554Y032225D01*
X017551Y032223D01*
X017549Y03222D01*
X017546Y032218D01*
X017543Y032215D01*
X017543Y032215D01*
X017542Y032215D01*
X017542Y032214D01*
X017541Y032213D01*
X01754Y032212D01*
X017538Y032211D01*
X017535Y032209D01*
X017532Y032206D01*
X017529Y032203D01*
X017527Y032201D01*
X017526Y0322D01*
X017525Y032199D01*
X017525Y032199D01*
X017524Y032199D01*
X017523Y032198D01*
X017522Y032197D01*
X017522Y032195D01*
X01752Y032194D01*
X017518Y032191D01*
X01758D01*
Y032176D01*
X017497D01*
Y032176D01*
Y032177D01*
Y032178D01*
X017497Y03218D01*
X017497Y032181D01*
X017497Y032183D01*
X017498Y032185D01*
X017499Y032187D01*
Y032187D01*
X017499Y032187D01*
X017499Y032188D01*
X0175Y03219D01*
X017501Y032192D01*
X017502Y032195D01*
X017504Y032198D01*
X017506Y032201D01*
X017509Y032204D01*
Y032204D01*
X017509Y032204D01*
X01751Y032205D01*
X017512Y032207D01*
X017514Y032209D01*
X017517Y032212D01*
X01752Y032215D01*
X017524Y032219D01*
X017529Y032223D01*
X017529Y032223D01*
X01753Y032223D01*
X017531Y032224D01*
X017532Y032225D01*
X017534Y032227D01*
X017536Y032228D01*
X017538Y03223D01*
X01754Y032232D01*
X017545Y032237D01*
X017549Y032241D01*
X017552Y032243D01*
X017554Y032245D01*
X017555Y032247D01*
X017557Y032249D01*
Y032249D01*
X017557Y03225D01*
X017558Y03225D01*
X017558Y032251D01*
X017559Y032253D01*
X017561Y032255D01*
X017562Y032258D01*
X017563Y032261D01*
X017564Y032265D01*
X017564Y032268D01*
Y032268D01*
Y032268D01*
X017564Y032269D01*
X017564Y032271D01*
X017563Y032273D01*
X017563Y032276D01*
X017561Y032278D01*
X01756Y032281D01*
X017558Y032284D01*
X017557Y032284D01*
X017556Y032285D01*
X017555Y032286D01*
X017553Y032287D01*
X01755Y032288D01*
X017548Y032289D01*
X017544Y03229D01*
X01754Y03229D01*
X017539D01*
X017538Y03229D01*
X017536Y03229D01*
X017534Y032289D01*
X017531Y032288D01*
X017528Y032287D01*
X017525Y032285D01*
X017522Y032283D01*
X017522Y032283D01*
X017521Y032282D01*
X01752Y03228D01*
X017519Y032278D01*
X017518Y032276D01*
X017517Y032272D01*
X017516Y032269D01*
X017515Y032265D01*
X0175Y032266D01*
Y032266D01*
X0175Y032267D01*
Y032268D01*
X0175Y032269D01*
X0175Y032271D01*
X017501Y032272D01*
X017501Y032274D01*
X017502Y032276D01*
X017503Y032281D01*
X017505Y032285D01*
X017507Y032287D01*
X017508Y032289D01*
X01751Y032291D01*
X017512Y032293D01*
X017512Y032293D01*
X017512Y032294D01*
X017513Y032294D01*
X017514Y032295D01*
X017515Y032295D01*
X017516Y032296D01*
X017518Y032297D01*
X01752Y032298D01*
X017522Y032299D01*
X017524Y0323D01*
X017526Y0323D01*
X017529Y032301D01*
X017531Y032302D01*
X017534Y032302D01*
X017537Y032302D01*
X017541Y032303D01*
X017542D01*
X017544Y032302D01*
D02*
G37*
G36*
X017438Y032302D02*
X01744D01*
X017444Y032302D01*
X017448Y032301D01*
X017452Y032301D01*
X017456Y0323D01*
X017458Y032299D01*
X01746Y032299D01*
X01746D01*
X01746Y032298D01*
X017461Y032298D01*
X017463Y032297D01*
X017465Y032296D01*
X017467Y032294D01*
X017469Y032292D01*
X017472Y03229D01*
X017474Y032287D01*
Y032286D01*
X017474Y032286D01*
X017475Y032285D01*
X017475Y032283D01*
X017477Y032281D01*
X017477Y032278D01*
X017478Y032275D01*
X017479Y032271D01*
X017479Y032268D01*
Y032267D01*
Y032267D01*
Y032266D01*
X017479Y032265D01*
Y032264D01*
X017479Y032263D01*
X017478Y03226D01*
X017477Y032256D01*
X017475Y032252D01*
X017473Y032249D01*
X017472Y032247D01*
X01747Y032245D01*
X01747Y032245D01*
X01747Y032245D01*
X017469Y032244D01*
X017469Y032243D01*
X017468Y032243D01*
X017467Y032242D01*
X017465Y032241D01*
X017464Y03224D01*
X017462Y032239D01*
X01746Y032238D01*
X017458Y032237D01*
X017455Y032236D01*
X017453Y032235D01*
X01745Y032235D01*
X017447Y032234D01*
X017444Y032233D01*
X017444Y032233D01*
X017445Y032233D01*
X017446Y032232D01*
X017447Y032231D01*
X017451Y032229D01*
X017452Y032228D01*
X017454Y032227D01*
X017454Y032227D01*
X017455Y032226D01*
X017456Y032224D01*
X017458Y032223D01*
X01746Y03222D01*
X017463Y032217D01*
X017465Y032214D01*
X017467Y03221D01*
X017489Y032176D01*
X017468D01*
X017452Y032202D01*
Y032203D01*
X017451Y032203D01*
X017451Y032203D01*
X017451Y032204D01*
X017449Y032206D01*
X017448Y032209D01*
X017446Y032211D01*
X017444Y032214D01*
X017442Y032217D01*
X01744Y03222D01*
X01744Y03222D01*
X017439Y032221D01*
X017438Y032222D01*
X017437Y032223D01*
X017434Y032226D01*
X017433Y032227D01*
X017431Y032228D01*
X017431Y032228D01*
X017431Y032228D01*
X01743Y032229D01*
X017429Y032229D01*
X017428Y03223D01*
X017427Y03223D01*
X017424Y032231D01*
X017423D01*
X017423Y032231D01*
X017422D01*
X017421Y032232D01*
X01742Y032232D01*
X017419D01*
X017417Y032232D01*
X017395D01*
Y032176D01*
X017378D01*
Y032302D01*
X017437D01*
X017438Y032302D01*
D02*
G37*
G36*
X017569Y031376D02*
X017553D01*
Y031475D01*
X017553Y031474D01*
X017552Y031474D01*
X017551Y031473D01*
X017549Y031471D01*
X017547Y03147D01*
X017545Y031468D01*
X017542Y031466D01*
X017539Y031464D01*
X017538D01*
X017538Y031464D01*
X017537Y031463D01*
X017535Y031462D01*
X017533Y031461D01*
X017531Y03146D01*
X017528Y031458D01*
X017525Y031457D01*
X017522Y031456D01*
Y031471D01*
X017522D01*
X017523Y031471D01*
X017524Y031471D01*
X017525Y031472D01*
X017526Y031473D01*
X017527Y031473D01*
X01753Y031475D01*
X017534Y031477D01*
X017537Y03148D01*
X017541Y031483D01*
X017545Y031486D01*
X017545Y031486D01*
X017545Y031486D01*
X017546Y031487D01*
X017547Y031487D01*
X017548Y031489D01*
X01755Y031491D01*
X017553Y031494D01*
X017555Y031497D01*
X017557Y0315D01*
X017559Y031503D01*
X017569D01*
Y031376D01*
D02*
G37*
G36*
X01745Y031502D02*
X017452D01*
X017455Y031502D01*
X017459Y031501D01*
X017464Y031501D01*
X017468Y0315D01*
X01747Y031499D01*
X017471Y031499D01*
X017472D01*
X017472Y031498D01*
X017473Y031498D01*
X017474Y031497D01*
X017476Y031496D01*
X017479Y031494D01*
X017481Y031492D01*
X017483Y03149D01*
X017485Y031487D01*
Y031486D01*
X017486Y031486D01*
X017486Y031485D01*
X017487Y031483D01*
X017488Y031481D01*
X017489Y031478D01*
X01749Y031475D01*
X01749Y031471D01*
X017491Y031468D01*
Y031467D01*
Y031467D01*
Y031466D01*
X01749Y031465D01*
Y031464D01*
X01749Y031463D01*
X01749Y03146D01*
X017488Y031456D01*
X017487Y031452D01*
X017485Y031449D01*
X017483Y031447D01*
X017482Y031445D01*
X017482Y031445D01*
X017482Y031445D01*
X017481Y031444D01*
X01748Y031443D01*
X017479Y031443D01*
X017478Y031442D01*
X017477Y031441D01*
X017475Y03144D01*
X017474Y031439D01*
X017472Y031438D01*
X017469Y031437D01*
X017467Y031436D01*
X017464Y031435D01*
X017462Y031435D01*
X017458Y031434D01*
X017455Y031433D01*
X017456Y031433D01*
X017456Y031433D01*
X017457Y031432D01*
X017459Y031431D01*
X017462Y031429D01*
X017464Y031428D01*
X017465Y031427D01*
X017466Y031427D01*
X017466Y031426D01*
X017468Y031424D01*
X01747Y031423D01*
X017472Y03142D01*
X017474Y031417D01*
X017476Y031414D01*
X017479Y03141D01*
X017501Y031376D01*
X01748D01*
X017463Y031402D01*
Y031403D01*
X017463Y031403D01*
X017463Y031403D01*
X017462Y031404D01*
X017461Y031406D01*
X017459Y031409D01*
X017457Y031411D01*
X017455Y031414D01*
X017453Y031417D01*
X017451Y03142D01*
X017451Y03142D01*
X017451Y031421D01*
X01745Y031422D01*
X017448Y031423D01*
X017446Y031426D01*
X017444Y031427D01*
X017443Y031428D01*
X017443Y031428D01*
X017442Y031428D01*
X017442Y031429D01*
X01744Y031429D01*
X017439Y03143D01*
X017438Y03143D01*
X017435Y031431D01*
X017435D01*
X017435Y031431D01*
X017434D01*
X017433Y031432D01*
X017432Y031432D01*
X01743D01*
X017428Y031432D01*
X017407D01*
Y031376D01*
X01739D01*
Y031502D01*
X017448D01*
X01745Y031502D01*
D02*
G37*
%LPC*%
G36*
X024605Y0366D02*
X024565D01*
Y036558D01*
X024603D01*
X024605Y036558D01*
X024607Y036558D01*
X02461Y036559D01*
X024613Y036559D01*
X024616Y03656D01*
X024619Y03656D01*
X024619Y03656D01*
X02462Y036561D01*
X024621Y036561D01*
X024622Y036562D01*
X024624Y036563D01*
X024626Y036564D01*
X024627Y036566D01*
X024628Y036568D01*
X024629Y036568D01*
X024629Y036569D01*
X02463Y03657D01*
X02463Y036571D01*
X024631Y036573D01*
X024631Y036575D01*
X024632Y036577D01*
X024632Y036579D01*
Y036579D01*
Y03658D01*
X024632Y036581D01*
X024632Y036582D01*
X024631Y036584D01*
X02463Y036587D01*
X024629Y036589D01*
X024628Y036592D01*
X024625Y036594D01*
X024625Y036594D01*
X024624Y036595D01*
X024623Y036596D01*
X02462Y036597D01*
X024618Y036598D01*
X024614Y036599D01*
X02461Y0366D01*
X024605Y0366D01*
D02*
G37*
G36*
X02471Y036602D02*
X024709D01*
X024707Y036601D01*
X024705Y036601D01*
X024703Y0366D01*
X0247Y036599D01*
X024698Y036598D01*
X024695Y036596D01*
X024695Y036596D01*
X024694Y036595D01*
X024693Y036594D01*
X024692Y036592D01*
X024691Y03659D01*
X02469Y036588D01*
X02469Y036585D01*
X02469Y036582D01*
Y036582D01*
Y036582D01*
X02469Y036581D01*
X02469Y036579D01*
X02469Y036577D01*
X024691Y036575D01*
X024692Y036572D01*
X024693Y03657D01*
X024695Y036568D01*
X024695Y036567D01*
X024696Y036567D01*
X024698Y036566D01*
X024699Y036565D01*
X024701Y036564D01*
X024704Y036563D01*
X024707Y036562D01*
X02471Y036562D01*
X024711D01*
X024712Y036562D01*
X024713Y036562D01*
X024715Y036563D01*
X024718Y036563D01*
X02472Y036564D01*
X024723Y036566D01*
X024725Y036568D01*
X024725Y036568D01*
X024726Y036569D01*
X024727Y03657D01*
X024728Y036571D01*
X024729Y036573D01*
X02473Y036576D01*
X024731Y036578D01*
X024731Y036581D01*
Y036582D01*
Y036582D01*
Y036583D01*
X02473Y036584D01*
X02473Y036586D01*
X024729Y036589D01*
X024728Y036591D01*
X024727Y036593D01*
X024725Y036596D01*
X024725Y036596D01*
X024724Y036597D01*
X024722Y036598D01*
X024721Y036599D01*
X024719Y0366D01*
X024716Y036601D01*
X024713Y036601D01*
X02471Y036602D01*
D02*
G37*
G36*
X02471Y036549D02*
X024709D01*
X024708Y036549D01*
X024706Y036549D01*
X024703Y036548D01*
X0247Y036548D01*
X024697Y036546D01*
X024694Y036544D01*
X024692Y036542D01*
X024691Y036542D01*
X02469Y036541D01*
X024689Y036539D01*
X024688Y036537D01*
X024687Y036534D01*
X024686Y036531D01*
X024685Y036528D01*
X024684Y036524D01*
Y036524D01*
Y036523D01*
X024685Y036522D01*
X024685Y03652D01*
X024685Y036518D01*
X024686Y036516D01*
X024686Y036514D01*
X024687Y036511D01*
X024688Y036511D01*
X024688Y03651D01*
X024689Y036509D01*
X02469Y036508D01*
X024691Y036506D01*
X024693Y036505D01*
X024694Y036503D01*
X024697Y036502D01*
X024697Y036502D01*
X024698Y036501D01*
X024699Y036501D01*
X024701Y0365D01*
X024703Y0365D01*
X024705Y036499D01*
X024708Y036499D01*
X02471Y036498D01*
X024711D01*
X024712Y036499D01*
X024714Y036499D01*
X024717Y036499D01*
X02472Y0365D01*
X024723Y036501D01*
X024726Y036503D01*
X024729Y036505D01*
X024729Y036506D01*
X02473Y036507D01*
X024731Y036508D01*
X024732Y03651D01*
X024733Y036513D01*
X024735Y036516D01*
X024735Y03652D01*
X024736Y036524D01*
Y036524D01*
Y036524D01*
Y036525D01*
X024736Y036525D01*
X024735Y036527D01*
X024735Y03653D01*
X024734Y036533D01*
X024733Y036536D01*
X024731Y036539D01*
X024728Y036542D01*
X024728Y036542D01*
X024727Y036543D01*
X024725Y036544D01*
X024723Y036546D01*
X024721Y036547D01*
X024717Y036548D01*
X024714Y036549D01*
X02471Y036549D01*
D02*
G37*
G36*
X024605Y037399D02*
X024565D01*
Y037357D01*
X024603D01*
X024605Y037357D01*
X024607Y037358D01*
X02461Y037358D01*
X024613Y037358D01*
X024616Y037359D01*
X024619Y037359D01*
X024619Y03736D01*
X02462Y03736D01*
X024621Y037361D01*
X024622Y037361D01*
X024624Y037362D01*
X024626Y037364D01*
X024627Y037365D01*
X024629Y037367D01*
X024629Y037367D01*
X024629Y037368D01*
X02463Y037369D01*
X02463Y037371D01*
X024631Y037372D01*
X024631Y037374D01*
X024632Y037376D01*
X024632Y037378D01*
Y037379D01*
Y037379D01*
X024632Y03738D01*
X024632Y037381D01*
X024631Y037384D01*
X02463Y037386D01*
X024629Y037388D01*
X024628Y037391D01*
X024625Y037393D01*
X024625Y037393D01*
X024624Y037394D01*
X024623Y037395D01*
X02462Y037396D01*
X024618Y037397D01*
X024614Y037398D01*
X02461Y037399D01*
X024605Y037399D01*
D02*
G37*
G36*
X017541Y035445D02*
X017539D01*
X017539Y035445D01*
X017537Y035445D01*
X017534Y035444D01*
X017532Y035443D01*
X017529Y035442D01*
X017526Y03544D01*
X017523Y035438D01*
X017522Y035437D01*
X017522Y035436D01*
X01752Y035435D01*
X017519Y035432D01*
X017518Y03543D01*
X017516Y035426D01*
X017516Y035422D01*
X017515Y035418D01*
Y035418D01*
Y035417D01*
X017516Y035415D01*
X017516Y035413D01*
X017516Y035411D01*
X017517Y035408D01*
X017518Y035405D01*
X017519Y035403D01*
X017519Y035402D01*
X017519Y035401D01*
X01752Y0354D01*
X017521Y035399D01*
X017522Y035397D01*
X017524Y035395D01*
X017526Y035393D01*
X017528Y035392D01*
X017529Y035391D01*
X017529Y035391D01*
X017531Y03539D01*
X017532Y03539D01*
X017534Y035389D01*
X017536Y035388D01*
X017539Y035388D01*
X017541Y035388D01*
X017542D01*
X017543Y035388D01*
X017545Y035388D01*
X017547Y035389D01*
X017549Y03539D01*
X017552Y035391D01*
X017555Y035393D01*
X017557Y035394D01*
X017558Y035396D01*
Y035396D01*
X017558Y035396D01*
X017559Y035397D01*
X01756Y035399D01*
X017562Y035401D01*
X017563Y035404D01*
X017564Y035408D01*
X017565Y035412D01*
X017565Y035417D01*
Y035417D01*
Y035418D01*
Y035418D01*
X017565Y035419D01*
Y03542D01*
X017565Y035422D01*
X017564Y035425D01*
X017563Y035428D01*
X017562Y035431D01*
X01756Y035435D01*
X017558Y035438D01*
X017558Y035438D01*
X017557Y035439D01*
X017555Y03544D01*
X017553Y035441D01*
X017551Y035443D01*
X017548Y035444D01*
X017544Y035445D01*
X017541Y035445D01*
D02*
G37*
G36*
X017434Y035489D02*
X017395D01*
Y035447D01*
X017432D01*
X017434Y035448D01*
X017437Y035448D01*
X01744Y035448D01*
X017443Y035448D01*
X017446Y035449D01*
X017448Y03545D01*
X017448Y03545D01*
X017449Y03545D01*
X01745Y035451D01*
X017452Y035451D01*
X017453Y035453D01*
X017455Y035454D01*
X017457Y035455D01*
X017458Y035457D01*
X017458Y035457D01*
X017458Y035458D01*
X017459Y035459D01*
X01746Y035461D01*
X01746Y035462D01*
X017461Y035464D01*
X017461Y035466D01*
X017461Y035469D01*
Y035469D01*
Y035469D01*
X017461Y03547D01*
X017461Y035472D01*
X017461Y035474D01*
X01746Y035476D01*
X017459Y035479D01*
X017457Y035481D01*
X017455Y035483D01*
X017454Y035484D01*
X017454Y035484D01*
X017452Y035485D01*
X01745Y035486D01*
X017447Y035487D01*
X017443Y035488D01*
X017439Y035489D01*
X017434Y035489D01*
D02*
G37*
G36*
X017434Y034639D02*
X017394D01*
Y034598D01*
X017432D01*
X017434Y034598D01*
X017436Y034598D01*
X017439Y034598D01*
X017442Y034599D01*
X017445Y034599D01*
X017448Y0346D01*
X017448Y0346D01*
X017449Y0346D01*
X01745Y034601D01*
X017451Y034602D01*
X017453Y034603D01*
X017455Y034604D01*
X017456Y034606D01*
X017457Y034608D01*
X017458Y034608D01*
X017458Y034608D01*
X017459Y03461D01*
X017459Y034611D01*
X01746Y034613D01*
X01746Y034614D01*
X017461Y034617D01*
X017461Y034619D01*
Y034619D01*
Y034619D01*
X017461Y03462D01*
X017461Y034622D01*
X01746Y034624D01*
X017459Y034626D01*
X017458Y034629D01*
X017457Y034631D01*
X017454Y034634D01*
X017454Y034634D01*
X017453Y034635D01*
X017452Y034635D01*
X017449Y034637D01*
X017447Y034638D01*
X017443Y034639D01*
X017439Y034639D01*
X017434Y034639D01*
D02*
G37*
G36*
X017548Y033827D02*
X017508Y033771D01*
X017548D01*
Y033827D01*
D02*
G37*
G36*
X017435Y033838D02*
X017395D01*
Y033797D01*
X017432D01*
X017435Y033797D01*
X017437Y033797D01*
X01744Y033797D01*
X017443Y033798D01*
X017446Y033798D01*
X017448Y033799D01*
X017449Y033799D01*
X017449Y033799D01*
X017451Y0338D01*
X017452Y033801D01*
X017454Y033802D01*
X017455Y033803D01*
X017457Y033805D01*
X017458Y033806D01*
X017458Y033807D01*
X017459Y033807D01*
X017459Y033808D01*
X01746Y03381D01*
X017461Y033812D01*
X017461Y033813D01*
X017461Y033816D01*
X017462Y033818D01*
Y033818D01*
Y033818D01*
X017461Y033819D01*
X017461Y033821D01*
X017461Y033823D01*
X01746Y033825D01*
X017459Y033828D01*
X017457Y03383D01*
X017455Y033832D01*
X017455Y033833D01*
X017454Y033833D01*
X017452Y033834D01*
X01745Y033835D01*
X017447Y033837D01*
X017444Y033837D01*
X017439Y033838D01*
X017435Y033838D01*
D02*
G37*
G36*
X017434Y033089D02*
X017395D01*
Y033047D01*
X017432D01*
X017434Y033048D01*
X017437Y033048D01*
X01744Y033048D01*
X017443Y033048D01*
X017446Y033049D01*
X017448Y03305D01*
X017448Y03305D01*
X017449Y03305D01*
X01745Y033051D01*
X017452Y033051D01*
X017453Y033053D01*
X017455Y033054D01*
X017457Y033055D01*
X017458Y033057D01*
X017458Y033057D01*
X017458Y033058D01*
X017459Y033059D01*
X01746Y033061D01*
X01746Y033062D01*
X017461Y033064D01*
X017461Y033066D01*
X017461Y033069D01*
Y033069D01*
Y033069D01*
X017461Y03307D01*
X017461Y033072D01*
X017461Y033074D01*
X01746Y033076D01*
X017459Y033079D01*
X017457Y033081D01*
X017455Y033083D01*
X017454Y033084D01*
X017454Y033084D01*
X017452Y033085D01*
X01745Y033086D01*
X017447Y033087D01*
X017443Y033088D01*
X017439Y033089D01*
X017434Y033089D01*
D02*
G37*
G36*
X017435Y032288D02*
X017395D01*
Y032246D01*
X017433D01*
X017435Y032247D01*
X017437Y032247D01*
X01744Y032247D01*
X017443Y032247D01*
X017446Y032248D01*
X017449Y032249D01*
X017449Y032249D01*
X01745Y032249D01*
X017451Y03225D01*
X017452Y03225D01*
X017454Y032251D01*
X017456Y032253D01*
X017457Y032254D01*
X017459Y032256D01*
X017459Y032256D01*
X017459Y032257D01*
X01746Y032258D01*
X01746Y03226D01*
X017461Y032261D01*
X017461Y032263D01*
X017462Y032265D01*
X017462Y032267D01*
Y032268D01*
Y032268D01*
X017462Y032269D01*
X017462Y032271D01*
X017461Y032273D01*
X01746Y032275D01*
X017459Y032278D01*
X017458Y03228D01*
X017455Y032282D01*
X017455Y032282D01*
X017454Y032283D01*
X017453Y032284D01*
X01745Y032285D01*
X017448Y032286D01*
X017444Y032287D01*
X01744Y032288D01*
X017435Y032288D01*
D02*
G37*
G36*
X017446Y031488D02*
X017407D01*
Y031446D01*
X017444D01*
X017446Y031447D01*
X017449Y031447D01*
X017452Y031447D01*
X017455Y031447D01*
X017458Y031448D01*
X01746Y031449D01*
X017461Y031449D01*
X017461Y031449D01*
X017462Y03145D01*
X017464Y03145D01*
X017466Y031451D01*
X017467Y031453D01*
X017469Y031454D01*
X01747Y031456D01*
X01747Y031456D01*
X017471Y031457D01*
X017471Y031458D01*
X017472Y03146D01*
X017472Y031461D01*
X017473Y031463D01*
X017473Y031465D01*
X017474Y031467D01*
Y031468D01*
Y031468D01*
X017473Y031469D01*
X017473Y031471D01*
X017473Y031473D01*
X017472Y031475D01*
X017471Y031477D01*
X017469Y03148D01*
X017467Y031482D01*
X017467Y031482D01*
X017466Y031483D01*
X017464Y031484D01*
X017462Y031485D01*
X017459Y031486D01*
X017456Y031487D01*
X017451Y031488D01*
X017446Y031488D01*
D02*
G37*
%LPD*%
D15*
X02425Y0368D02*
X02505D01*
X02425Y0363D02*
X02505D01*
Y0368D01*
X02425Y0363D02*
Y0368D01*
Y0376D02*
X02505D01*
X02425Y0371D02*
X02505D01*
Y0376D01*
X02425Y0371D02*
Y0376D01*
X017079Y035689D02*
X017879D01*
X017079Y035189D02*
X017879D01*
Y035689D01*
X017079Y035189D02*
Y035689D01*
Y034839D02*
X017879D01*
X017079Y034339D02*
X017879D01*
Y034839D01*
X017079Y034339D02*
Y034839D01*
Y034039D02*
X017879D01*
X017079Y033539D02*
X017879D01*
Y034039D01*
X017079Y033539D02*
Y034039D01*
Y033289D02*
X017879D01*
X017079Y032789D02*
X017879D01*
Y033289D01*
X017079Y032789D02*
Y033289D01*
Y032489D02*
X017879D01*
X017079Y031989D02*
X017879D01*
Y032489D01*
X017079Y031989D02*
Y032489D01*
Y031689D02*
X017879D01*
X017079Y031189D02*
X017879D01*
Y031689D01*
X017079Y031189D02*
Y031689D01*
M02*
