G04*
G04 #@! TF.GenerationSoftware,Altium Limited,Altium Designer,21.3.2 (30)*
G04*
G04 Layer_Color=2752767*
%FSTAX24Y24*%
%MOIN*%
G70*
G04*
G04 #@! TF.SameCoordinates,70DC1E10-037C-42C7-9AD5-60C584CD1C3D*
G04*
G04*
G04 #@! TF.FilePolarity,Positive*
G04*
G01*
G75*
%ADD49C,0.0020*%
%ADD50C,0.0027*%
D49*
X02191Y013155D02*
Y013315D01*
X02207D01*
Y013155D01*
X02191D01*
Y014205D02*
Y014365D01*
X02207D01*
Y014205D01*
X02191D01*
X01901D02*
Y014365D01*
X01917D01*
Y014205D01*
X01901D01*
Y013205D02*
Y013365D01*
X01917D01*
Y013205D01*
X01901D01*
X01616D02*
Y013365D01*
X01632D01*
Y013205D01*
X01616D01*
Y014205D02*
Y014365D01*
X01632D01*
Y014205D01*
X01616D01*
X01081Y013155D02*
Y013315D01*
X01097D01*
Y013155D01*
X01081D01*
Y014205D02*
Y014365D01*
X01097D01*
Y014205D01*
X01081D01*
X00791D02*
Y014365D01*
X00807D01*
Y014205D01*
X00791D01*
Y013205D02*
Y013365D01*
X00807D01*
Y013205D01*
X00791D01*
X00501D02*
Y013365D01*
X00517D01*
Y013205D01*
X00501D01*
Y014205D02*
Y014365D01*
X00517D01*
Y014205D01*
X00501D01*
X018Y02532D02*
X01792Y02548D01*
X01808D01*
X018Y02532D01*
X02D02*
X01992Y02548D01*
X02008D01*
X02Y02532D01*
X021D02*
X02092Y02548D01*
X02108D01*
X021Y02532D01*
X019D02*
X01892Y02548D01*
X01908D01*
X019Y02532D01*
X00426Y04018D02*
X0043Y04022D01*
X00434D01*
X0043Y04026D01*
X00434Y0403D01*
X0043D01*
X00426Y04034D01*
X00422Y0403D01*
X00418D01*
X00422Y04026D01*
X00418Y04022D01*
X00422D01*
X00426Y04018D01*
X00296Y04207D02*
X003Y04215D01*
X00296Y04223D01*
X00304Y04219D01*
X00312Y04223D01*
X00308Y04215D01*
X00312Y04207D01*
X00304Y04211D01*
X00296Y04207D01*
X005362D02*
X005402Y04215D01*
X005362Y04223D01*
X005442Y04219D01*
X005522Y04223D01*
X005482Y04215D01*
X005522Y04207D01*
X005442Y04211D01*
X005362Y04207D01*
X03006Y03321D02*
Y03317D01*
X03014D01*
Y03321D01*
X03018D01*
Y03329D01*
X03014D01*
Y03333D01*
X03006D01*
Y03329D01*
X03002D01*
Y03321D01*
X03006D01*
X02706D02*
Y03317D01*
X02714D01*
Y03321D01*
X02718D01*
Y03329D01*
X02714D01*
Y03333D01*
X02706D01*
Y03329D01*
X02702D01*
Y03321D01*
X02706D01*
X00656Y03657D02*
X0066D01*
X00664Y03661D01*
X00668Y03657D01*
X00672D01*
Y03661D01*
X00668Y03665D01*
X00672Y03669D01*
Y03673D01*
X00668D01*
X00664Y03669D01*
X0066Y03673D01*
X00656D01*
Y03669D01*
X0066Y03665D01*
X00656Y03661D01*
Y03657D01*
X00356D02*
X0036D01*
X00364Y03661D01*
X00368Y03657D01*
X00372D01*
Y03661D01*
X00368Y03665D01*
X00372Y03669D01*
Y03673D01*
X00368D01*
X00364Y03669D01*
X0036Y03673D01*
X00356D01*
Y03669D01*
X0036Y03665D01*
X00356Y03661D01*
Y03657D01*
X00856D02*
X0086D01*
X00864Y03661D01*
X00868Y03657D01*
X00872D01*
Y03661D01*
X00868Y03665D01*
X00872Y03669D01*
Y03673D01*
X00868D01*
X00864Y03669D01*
X0086Y03673D01*
X00856D01*
Y03669D01*
X0086Y03665D01*
X00856Y03661D01*
Y03657D01*
X01156D02*
X0116D01*
X01164Y03661D01*
X01168Y03657D01*
X01172D01*
Y03661D01*
X01168Y03665D01*
X01172Y03669D01*
Y03673D01*
X01168D01*
X01164Y03669D01*
X0116Y03673D01*
X01156D01*
Y03669D01*
X0116Y03665D01*
X01156Y03661D01*
Y03657D01*
X01256D02*
X0126D01*
X01264Y03661D01*
X01268Y03657D01*
X01272D01*
Y03661D01*
X01268Y03665D01*
X01272Y03669D01*
Y03673D01*
X01268D01*
X01264Y03669D01*
X0126Y03673D01*
X01256D01*
Y03669D01*
X0126Y03665D01*
X01256Y03661D01*
Y03657D01*
X01756D02*
X0176D01*
X01764Y03661D01*
X01768Y03657D01*
X01772D01*
Y03661D01*
X01768Y03665D01*
X01772Y03669D01*
Y03673D01*
X01768D01*
X01764Y03669D01*
X0176Y03673D01*
X01756D01*
Y03669D01*
X0176Y03665D01*
X01756Y03661D01*
Y03657D01*
X01956D02*
X0196D01*
X01964Y03661D01*
X01968Y03657D01*
X01972D01*
Y03661D01*
X01968Y03665D01*
X01972Y03669D01*
Y03673D01*
X01968D01*
X01964Y03669D01*
X0196Y03673D01*
X01956D01*
Y03669D01*
X0196Y03665D01*
X01956Y03661D01*
Y03657D01*
X02056D02*
X0206D01*
X02064Y03661D01*
X02068Y03657D01*
X02072D01*
Y03661D01*
X02068Y03665D01*
X02072Y03669D01*
Y03673D01*
X02068D01*
X02064Y03669D01*
X0206Y03673D01*
X02056D01*
Y03669D01*
X0206Y03665D01*
X02056Y03661D01*
Y03657D01*
X00456D02*
X0046D01*
X00464Y03661D01*
X00468Y03657D01*
X00472D01*
Y03661D01*
X00468Y03665D01*
X00472Y03669D01*
Y03673D01*
X00468D01*
X00464Y03669D01*
X0046Y03673D01*
X00456D01*
Y03669D01*
X0046Y03665D01*
X00456Y03661D01*
Y03657D01*
X00556D02*
X0056D01*
X00564Y03661D01*
X00568Y03657D01*
X00572D01*
Y03661D01*
X00568Y03665D01*
X00572Y03669D01*
Y03673D01*
X00568D01*
X00564Y03669D01*
X0056Y03673D01*
X00556D01*
Y03669D01*
X0056Y03665D01*
X00556Y03661D01*
Y03657D01*
X00756D02*
X0076D01*
X00764Y03661D01*
X00768Y03657D01*
X00772D01*
Y03661D01*
X00768Y03665D01*
X00772Y03669D01*
Y03673D01*
X00768D01*
X00764Y03669D01*
X0076Y03673D01*
X00756D01*
Y03669D01*
X0076Y03665D01*
X00756Y03661D01*
Y03657D01*
X00956D02*
X0096D01*
X00964Y03661D01*
X00968Y03657D01*
X00972D01*
Y03661D01*
X00968Y03665D01*
X00972Y03669D01*
Y03673D01*
X00968D01*
X00964Y03669D01*
X0096Y03673D01*
X00956D01*
Y03669D01*
X0096Y03665D01*
X00956Y03661D01*
Y03657D01*
X01056D02*
X0106D01*
X01064Y03661D01*
X01068Y03657D01*
X01072D01*
Y03661D01*
X01068Y03665D01*
X01072Y03669D01*
Y03673D01*
X01068D01*
X01064Y03669D01*
X0106Y03673D01*
X01056D01*
Y03669D01*
X0106Y03665D01*
X01056Y03661D01*
Y03657D01*
X01356D02*
X0136D01*
X01364Y03661D01*
X01368Y03657D01*
X01372D01*
Y03661D01*
X01368Y03665D01*
X01372Y03669D01*
Y03673D01*
X01368D01*
X01364Y03669D01*
X0136Y03673D01*
X01356D01*
Y03669D01*
X0136Y03665D01*
X01356Y03661D01*
Y03657D01*
X01456D02*
X0146D01*
X01464Y03661D01*
X01468Y03657D01*
X01472D01*
Y03661D01*
X01468Y03665D01*
X01472Y03669D01*
Y03673D01*
X01468D01*
X01464Y03669D01*
X0146Y03673D01*
X01456D01*
Y03669D01*
X0146Y03665D01*
X01456Y03661D01*
Y03657D01*
X01556D02*
X0156D01*
X01564Y03661D01*
X01568Y03657D01*
X01572D01*
Y03661D01*
X01568Y03665D01*
X01572Y03669D01*
Y03673D01*
X01568D01*
X01564Y03669D01*
X0156Y03673D01*
X01556D01*
Y03669D01*
X0156Y03665D01*
X01556Y03661D01*
Y03657D01*
X01656D02*
X0166D01*
X01664Y03661D01*
X01668Y03657D01*
X01672D01*
Y03661D01*
X01668Y03665D01*
X01672Y03669D01*
Y03673D01*
X01668D01*
X01664Y03669D01*
X0166Y03673D01*
X01656D01*
Y03669D01*
X0166Y03665D01*
X01656Y03661D01*
Y03657D01*
X01856D02*
X0186D01*
X01864Y03661D01*
X01868Y03657D01*
X01872D01*
Y03661D01*
X01868Y03665D01*
X01872Y03669D01*
Y03673D01*
X01868D01*
X01864Y03669D01*
X0186Y03673D01*
X01856D01*
Y03669D01*
X0186Y03665D01*
X01856Y03661D01*
Y03657D01*
X02156D02*
X0216D01*
X02164Y03661D01*
X02168Y03657D01*
X02172D01*
Y03661D01*
X02168Y03665D01*
X02172Y03669D01*
Y03673D01*
X02168D01*
X02164Y03669D01*
X0216Y03673D01*
X02156D01*
Y03669D01*
X0216Y03665D01*
X02156Y03661D01*
Y03657D01*
X00356Y02757D02*
X0036D01*
X00364Y02761D01*
X00368Y02757D01*
X00372D01*
Y02761D01*
X00368Y02765D01*
X00372Y02769D01*
Y02773D01*
X00368D01*
X00364Y02769D01*
X0036Y02773D01*
X00356D01*
Y02769D01*
X0036Y02765D01*
X00356Y02761D01*
Y02757D01*
X00456D02*
X0046D01*
X00464Y02761D01*
X00468Y02757D01*
X00472D01*
Y02761D01*
X00468Y02765D01*
X00472Y02769D01*
Y02773D01*
X00468D01*
X00464Y02769D01*
X0046Y02773D01*
X00456D01*
Y02769D01*
X0046Y02765D01*
X00456Y02761D01*
Y02757D01*
X00556D02*
X0056D01*
X00564Y02761D01*
X00568Y02757D01*
X00572D01*
Y02761D01*
X00568Y02765D01*
X00572Y02769D01*
Y02773D01*
X00568D01*
X00564Y02769D01*
X0056Y02773D01*
X00556D01*
Y02769D01*
X0056Y02765D01*
X00556Y02761D01*
Y02757D01*
X00656D02*
X0066D01*
X00664Y02761D01*
X00668Y02757D01*
X00672D01*
Y02761D01*
X00668Y02765D01*
X00672Y02769D01*
Y02773D01*
X00668D01*
X00664Y02769D01*
X0066Y02773D01*
X00656D01*
Y02769D01*
X0066Y02765D01*
X00656Y02761D01*
Y02757D01*
X00756D02*
X0076D01*
X00764Y02761D01*
X00768Y02757D01*
X00772D01*
Y02761D01*
X00768Y02765D01*
X00772Y02769D01*
Y02773D01*
X00768D01*
X00764Y02769D01*
X0076Y02773D01*
X00756D01*
Y02769D01*
X0076Y02765D01*
X00756Y02761D01*
Y02757D01*
X00856D02*
X0086D01*
X00864Y02761D01*
X00868Y02757D01*
X00872D01*
Y02761D01*
X00868Y02765D01*
X00872Y02769D01*
Y02773D01*
X00868D01*
X00864Y02769D01*
X0086Y02773D01*
X00856D01*
Y02769D01*
X0086Y02765D01*
X00856Y02761D01*
Y02757D01*
X00956D02*
X0096D01*
X00964Y02761D01*
X00968Y02757D01*
X00972D01*
Y02761D01*
X00968Y02765D01*
X00972Y02769D01*
Y02773D01*
X00968D01*
X00964Y02769D01*
X0096Y02773D01*
X00956D01*
Y02769D01*
X0096Y02765D01*
X00956Y02761D01*
Y02757D01*
X01056D02*
X0106D01*
X01064Y02761D01*
X01068Y02757D01*
X01072D01*
Y02761D01*
X01068Y02765D01*
X01072Y02769D01*
Y02773D01*
X01068D01*
X01064Y02769D01*
X0106Y02773D01*
X01056D01*
Y02769D01*
X0106Y02765D01*
X01056Y02761D01*
Y02757D01*
X01156D02*
X0116D01*
X01164Y02761D01*
X01168Y02757D01*
X01172D01*
Y02761D01*
X01168Y02765D01*
X01172Y02769D01*
Y02773D01*
X01168D01*
X01164Y02769D01*
X0116Y02773D01*
X01156D01*
Y02769D01*
X0116Y02765D01*
X01156Y02761D01*
Y02757D01*
X01256D02*
X0126D01*
X01264Y02761D01*
X01268Y02757D01*
X01272D01*
Y02761D01*
X01268Y02765D01*
X01272Y02769D01*
Y02773D01*
X01268D01*
X01264Y02769D01*
X0126Y02773D01*
X01256D01*
Y02769D01*
X0126Y02765D01*
X01256Y02761D01*
Y02757D01*
X01356D02*
X0136D01*
X01364Y02761D01*
X01368Y02757D01*
X01372D01*
Y02761D01*
X01368Y02765D01*
X01372Y02769D01*
Y02773D01*
X01368D01*
X01364Y02769D01*
X0136Y02773D01*
X01356D01*
Y02769D01*
X0136Y02765D01*
X01356Y02761D01*
Y02757D01*
X01456D02*
X0146D01*
X01464Y02761D01*
X01468Y02757D01*
X01472D01*
Y02761D01*
X01468Y02765D01*
X01472Y02769D01*
Y02773D01*
X01468D01*
X01464Y02769D01*
X0146Y02773D01*
X01456D01*
Y02769D01*
X0146Y02765D01*
X01456Y02761D01*
Y02757D01*
X01556D02*
X0156D01*
X01564Y02761D01*
X01568Y02757D01*
X01572D01*
Y02761D01*
X01568Y02765D01*
X01572Y02769D01*
Y02773D01*
X01568D01*
X01564Y02769D01*
X0156Y02773D01*
X01556D01*
Y02769D01*
X0156Y02765D01*
X01556Y02761D01*
Y02757D01*
X01656D02*
X0166D01*
X01664Y02761D01*
X01668Y02757D01*
X01672D01*
Y02761D01*
X01668Y02765D01*
X01672Y02769D01*
Y02773D01*
X01668D01*
X01664Y02769D01*
X0166Y02773D01*
X01656D01*
Y02769D01*
X0166Y02765D01*
X01656Y02761D01*
Y02757D01*
X01756D02*
X0176D01*
X01764Y02761D01*
X01768Y02757D01*
X01772D01*
Y02761D01*
X01768Y02765D01*
X01772Y02769D01*
Y02773D01*
X01768D01*
X01764Y02769D01*
X0176Y02773D01*
X01756D01*
Y02769D01*
X0176Y02765D01*
X01756Y02761D01*
Y02757D01*
X01856D02*
X0186D01*
X01864Y02761D01*
X01868Y02757D01*
X01872D01*
Y02761D01*
X01868Y02765D01*
X01872Y02769D01*
Y02773D01*
X01868D01*
X01864Y02769D01*
X0186Y02773D01*
X01856D01*
Y02769D01*
X0186Y02765D01*
X01856Y02761D01*
Y02757D01*
X01956D02*
X0196D01*
X01964Y02761D01*
X01968Y02757D01*
X01972D01*
Y02761D01*
X01968Y02765D01*
X01972Y02769D01*
Y02773D01*
X01968D01*
X01964Y02769D01*
X0196Y02773D01*
X01956D01*
Y02769D01*
X0196Y02765D01*
X01956Y02761D01*
Y02757D01*
X02056D02*
X0206D01*
X02064Y02761D01*
X02068Y02757D01*
X02072D01*
Y02761D01*
X02068Y02765D01*
X02072Y02769D01*
Y02773D01*
X02068D01*
X02064Y02769D01*
X0206Y02773D01*
X02056D01*
Y02769D01*
X0206Y02765D01*
X02056Y02761D01*
Y02757D01*
X02156D02*
X0216D01*
X02164Y02761D01*
X02168Y02757D01*
X02172D01*
Y02761D01*
X02168Y02765D01*
X02172Y02769D01*
Y02773D01*
X02168D01*
X02164Y02769D01*
X0216Y02773D01*
X02156D01*
Y02769D01*
X0216Y02765D01*
X02156Y02761D01*
Y02757D01*
X03006Y03816D02*
Y03812D01*
X03014D01*
Y03816D01*
X03018D01*
Y03824D01*
X03014D01*
Y03828D01*
X03006D01*
Y03824D01*
X03002D01*
Y03816D01*
X03006D01*
X02706D02*
Y03812D01*
X02714D01*
Y03816D01*
X02718D01*
Y03824D01*
X02714D01*
Y03828D01*
X02706D01*
Y03824D01*
X02702D01*
Y03816D01*
X02706D01*
X00735Y02532D02*
X00727Y02548D01*
X00743D01*
X00735Y02532D01*
X00935D02*
X00927Y02548D01*
X00943D01*
X00935Y02532D01*
X00835D02*
X00827Y02548D01*
X00843D01*
X00835Y02532D01*
X00635D02*
X00627Y02548D01*
X00643D01*
X00635Y02532D01*
X02586Y041399D02*
X02594Y041479D01*
X02602Y041399D01*
X02594Y041319D01*
X02586Y041399D01*
Y04325D02*
X02594Y04333D01*
X02602Y04325D01*
X02594Y04317D01*
X02586Y04325D01*
Y0451D02*
X02594Y04518D01*
X02602Y0451D01*
X02594Y04502D01*
X02586Y0451D01*
X00681Y04512D02*
Y04528D01*
X00697D01*
Y04512D01*
X00681D01*
X00685Y04516D02*
Y04524D01*
X00693D01*
Y04516D01*
X00685D01*
X00681Y03823D02*
Y03839D01*
X00697D01*
Y03823D01*
X00681D01*
X00685Y03827D02*
Y03835D01*
X00693D01*
Y03827D01*
X00685D01*
X022558Y04512D02*
Y04528D01*
X022718D01*
Y04512D01*
X022558D01*
X022598Y04516D02*
Y04524D01*
X022678D01*
Y04516D01*
X022598D01*
X022558Y03823D02*
Y03839D01*
X022718D01*
Y03823D01*
X022558D01*
X022598Y03827D02*
Y03835D01*
X022678D01*
Y03827D01*
X022598D01*
D50*
X024167Y025203D02*
G03*
X024167Y025203I-00008J0D01*
G01*
Y015833D02*
G03*
X024167Y015833I-00008J0D01*
G01*
X014993D02*
G03*
X014993Y015833I-00008J0D01*
G01*
Y025203D02*
G03*
X014993Y025203I-00008J0D01*
G01*
X003343D02*
G03*
X003343Y025203I-00008J0D01*
G01*
Y015833D02*
G03*
X003343Y015833I-00008J0D01*
G01*
X012517D02*
G03*
X012517Y015833I-00008J0D01*
G01*
Y025203D02*
G03*
X012517Y025203I-00008J0D01*
G01*
M02*
