G04*
G04 #@! TF.GenerationSoftware,Altium Limited,Altium Designer,21.3.2 (30)*
G04*
G04 Layer_Color=255*
%FSTAX24Y24*%
%MOIN*%
G70*
G04*
G04 #@! TF.SameCoordinates,70DC1E10-037C-42C7-9AD5-60C584CD1C3D*
G04*
G04*
G04 #@! TF.FilePolarity,Positive*
G04*
G01*
G75*
%ADD36R,0.1000X0.0650*%
%ADD37O,0.1000X0.0650*%
%ADD38C,0.1378*%
%ADD39R,0.0787X0.0787*%
%ADD40C,0.0787*%
%ADD41R,0.1600X0.1000*%
%ADD42R,0.1000X0.1600*%
%ADD43R,0.0591X0.0591*%
%ADD44C,0.0591*%
%ADD45R,0.1220X0.0787*%
%ADD46O,0.1220X0.0787*%
%ADD47R,0.0630X0.0630*%
%ADD48C,0.0630*%
D36*
X02199Y013235D02*
D03*
X01909Y013285D02*
D03*
X01624D02*
D03*
X01089Y013235D02*
D03*
X00799Y013285D02*
D03*
X00509D02*
D03*
D37*
X02199Y014285D02*
D03*
X01909D02*
D03*
X01624D02*
D03*
X01089D02*
D03*
X00799D02*
D03*
X00509D02*
D03*
D38*
X024087Y025203D02*
D03*
Y015833D02*
D03*
X014913D02*
D03*
Y025203D02*
D03*
X003263D02*
D03*
Y015833D02*
D03*
X012437D02*
D03*
Y025203D02*
D03*
D39*
X018Y0254D02*
D03*
X00635D02*
D03*
D40*
X02D02*
D03*
X021D02*
D03*
X019D02*
D03*
X00664Y03665D02*
D03*
X00364D02*
D03*
X00864D02*
D03*
X01164D02*
D03*
X01264D02*
D03*
X01764D02*
D03*
X01964D02*
D03*
X02064D02*
D03*
X00464D02*
D03*
X00564D02*
D03*
X00764D02*
D03*
X00964D02*
D03*
X01064D02*
D03*
X01364D02*
D03*
X01464D02*
D03*
X01564D02*
D03*
X01664D02*
D03*
X01864D02*
D03*
X02164D02*
D03*
X00364Y02765D02*
D03*
X00464D02*
D03*
X00564D02*
D03*
X00664D02*
D03*
X00764D02*
D03*
X00864D02*
D03*
X00964D02*
D03*
X01064D02*
D03*
X01164D02*
D03*
X01264D02*
D03*
X01364D02*
D03*
X01464D02*
D03*
X01564D02*
D03*
X01664D02*
D03*
X01764D02*
D03*
X01864D02*
D03*
X01964D02*
D03*
X02064D02*
D03*
X02164D02*
D03*
X00735Y0254D02*
D03*
X00935D02*
D03*
X00835D02*
D03*
D41*
X00426Y04026D02*
D03*
D42*
X00304Y04215D02*
D03*
X005442D02*
D03*
D43*
X0301Y03325D02*
D03*
Y0382D02*
D03*
D44*
X0271Y03325D02*
D03*
Y0382D02*
D03*
D45*
X02594Y041399D02*
D03*
D46*
Y04325D02*
D03*
Y0451D02*
D03*
D47*
X00689Y0452D02*
D03*
D48*
Y03831D02*
D03*
X022638Y0452D02*
D03*
Y03831D02*
D03*
M02*
