G04*
G04 #@! TF.GenerationSoftware,Altium Limited,Altium Designer,21.3.2 (30)*
G04*
G04 Layer_Physical_Order=1*
G04 Layer_Color=255*
%FSTAX24Y24*%
%MOIN*%
G70*
G04*
G04 #@! TF.SameCoordinates,70DC1E10-037C-42C7-9AD5-60C584CD1C3D*
G04*
G04*
G04 #@! TF.FilePolarity,Positive*
G04*
G01*
G75*
%ADD17R,0.0394X0.0551*%
%ADD18R,0.0394X0.0492*%
%ADD34C,0.0300*%
%ADD35C,0.0200*%
%ADD36R,0.1000X0.0650*%
%ADD37O,0.1000X0.0650*%
%ADD38C,0.1378*%
%ADD39R,0.0787X0.0787*%
%ADD40C,0.0787*%
%ADD41R,0.1600X0.1000*%
%ADD42R,0.1000X0.1600*%
%ADD43R,0.0591X0.0591*%
%ADD44C,0.0591*%
%ADD45R,0.1220X0.0787*%
%ADD46O,0.1220X0.0787*%
%ADD47R,0.0630X0.0630*%
%ADD48C,0.0630*%
G36*
X030958Y010092D02*
X030508D01*
X03045Y01015D01*
X0255D01*
X025479Y0102D01*
X02983Y014551D01*
X029885Y014634D01*
X029905Y014732D01*
Y028607D01*
X029885Y028704D01*
X02983Y028787D01*
X024374Y034244D01*
X024397Y034291D01*
X024973D01*
Y035043D01*
X024599D01*
X024579Y035046D01*
X024554D01*
Y035616D01*
X024707Y035769D01*
X024753Y035749D01*
Y035157D01*
X025072D01*
X025097Y035153D01*
X025404D01*
X025468Y035089D01*
X025449Y035043D01*
X025127D01*
Y034717D01*
X025424D01*
X025721D01*
Y03477D01*
X025767Y034789D01*
X02679Y033767D01*
Y033499D01*
X026784Y033493D01*
X026732Y033403D01*
X026705Y033302D01*
Y033198D01*
X026732Y033097D01*
X026784Y033007D01*
X026857Y032934D01*
X026947Y032882D01*
X027048Y032855D01*
X027152D01*
X027253Y032882D01*
X027343Y032934D01*
X027416Y033007D01*
X027468Y033097D01*
X027495Y033198D01*
Y033302D01*
X027468Y033403D01*
X027416Y033493D01*
X027343Y033566D01*
X027299Y033591D01*
Y033873D01*
X02728Y03397D01*
X027225Y034053D01*
X02569Y035588D01*
X025607Y035643D01*
X02551Y035662D01*
X025347D01*
Y035909D01*
X024912D01*
X024893Y035955D01*
X025091Y036153D01*
X025125Y036204D01*
X025341D01*
Y036896D01*
X024747D01*
Y036473D01*
X024743Y036453D01*
Y036381D01*
X024603Y036242D01*
X024553Y036262D01*
Y036896D01*
X024199D01*
X024137Y036958D01*
X024156Y037004D01*
X024553D01*
Y037487D01*
X024599Y037506D01*
X024747Y037358D01*
Y037004D01*
X025341D01*
Y037696D01*
X024986D01*
X02488Y037802D01*
Y037908D01*
X024973D01*
Y038659D01*
X024379D01*
Y037908D01*
X024472D01*
Y037718D01*
X024454Y037696D01*
X024199D01*
X02395Y037944D01*
X023884Y037988D01*
X023806Y038004D01*
X022984D01*
X022965Y03805D01*
X02297Y038055D01*
X023025Y03815D01*
X023053Y038256D01*
Y03826D01*
X022223D01*
Y038256D01*
X022251Y03815D01*
X022306Y038055D01*
X022311Y03805D01*
X022292Y038004D01*
X01779D01*
X01779Y038004D01*
X017712Y037988D01*
X017646Y037944D01*
X016816Y037114D01*
X016705Y037144D01*
X016575D01*
X016449Y03711D01*
X016337Y037045D01*
X016245Y036953D01*
X01618Y036841D01*
X016166Y036788D01*
X016114D01*
X0161Y036841D01*
X016035Y036953D01*
X015943Y037045D01*
X015831Y03711D01*
X015705Y037144D01*
X015575D01*
X015449Y03711D01*
X015337Y037045D01*
X015245Y036953D01*
X01518Y036841D01*
X015166Y036788D01*
X015114D01*
X0151Y036841D01*
X015035Y036953D01*
X014943Y037045D01*
X014831Y03711D01*
X014705Y037144D01*
X014575D01*
X014449Y03711D01*
X014337Y037045D01*
X014245Y036953D01*
X01418Y036841D01*
X014166Y036788D01*
X014114D01*
X0141Y036841D01*
X014035Y036953D01*
X013943Y037045D01*
X013831Y03711D01*
X013705Y037144D01*
X013575D01*
X013449Y03711D01*
X013337Y037045D01*
X013245Y036953D01*
X01318Y036841D01*
X013166Y036788D01*
X013114D01*
X0131Y036841D01*
X013035Y036953D01*
X012943Y037045D01*
X012831Y03711D01*
X012705Y037144D01*
X012575D01*
X012449Y03711D01*
X012337Y037045D01*
X012245Y036953D01*
X01218Y036841D01*
X012166Y036788D01*
X012114D01*
X0121Y036841D01*
X012035Y036953D01*
X011943Y037045D01*
X011831Y03711D01*
X011705Y037144D01*
X011575D01*
X011449Y03711D01*
X011337Y037045D01*
X011245Y036953D01*
X01118Y036841D01*
X011166Y036788D01*
X011114D01*
X0111Y036841D01*
X011035Y036953D01*
X010943Y037045D01*
X010831Y03711D01*
X010705Y037144D01*
X010575D01*
X010449Y03711D01*
X010337Y037045D01*
X010245Y036953D01*
X01018Y036841D01*
X010166Y036788D01*
X010114D01*
X0101Y036841D01*
X010035Y036953D01*
X009943Y037045D01*
X009831Y03711D01*
X009705Y037144D01*
X009575D01*
X009449Y03711D01*
X009337Y037045D01*
X009245Y036953D01*
X00918Y036841D01*
X009166Y036788D01*
X009114D01*
X0091Y036841D01*
X009035Y036953D01*
X008943Y037045D01*
X008831Y03711D01*
X008705Y037144D01*
X00869D01*
Y03665D01*
Y036156D01*
X008705D01*
X008831Y03619D01*
X008943Y036255D01*
X009035Y036347D01*
X0091Y036459D01*
X009114Y036512D01*
X009166D01*
X00918Y036459D01*
X009245Y036347D01*
X009337Y036255D01*
X009345Y03625D01*
X009347Y0362D01*
X009326Y036187D01*
X00267Y02953D01*
X002614Y029448D01*
X002595Y02935D01*
Y02753D01*
X002614Y027432D01*
X00267Y027349D01*
X003585Y026435D01*
X003667Y026379D01*
X003765Y02636D01*
X006171D01*
X006591Y02594D01*
X006571Y025894D01*
X0064D01*
Y0254D01*
Y024906D01*
X006844D01*
Y025168D01*
X006852Y025175D01*
X006918Y025162D01*
X006955Y025097D01*
X007047Y025005D01*
X007095Y024977D01*
Y0248D01*
X007115Y024702D01*
X00717Y02462D01*
X00847Y02332D01*
X008552Y023265D01*
X00865Y023245D01*
X014959D01*
X015057Y023265D01*
X015139Y02332D01*
X01746Y025641D01*
X017506Y025621D01*
Y02545D01*
X018D01*
Y0254D01*
X01805D01*
Y024906D01*
X018494D01*
Y025168D01*
X018502Y025175D01*
X018568Y025162D01*
X018605Y025097D01*
X018697Y025005D01*
X018809Y02494D01*
X018935Y024906D01*
X019065D01*
X019191Y02494D01*
X019303Y025005D01*
X019395Y025097D01*
X01946Y025209D01*
X019474Y025262D01*
X019526D01*
X01954Y025209D01*
X019605Y025097D01*
X019697Y025005D01*
X019809Y02494D01*
X019908Y024913D01*
Y024088D01*
X019924Y02401D01*
X019968Y023943D01*
X020206Y023706D01*
X020272Y023662D01*
X02035Y023646D01*
X02035Y023646D01*
X022083D01*
X022161Y023662D01*
X022227Y023706D01*
X022344Y023823D01*
X022344Y023823D01*
X022388Y023889D01*
X022404Y023967D01*
Y025249D01*
X022388Y025327D01*
X022344Y025393D01*
X022344Y025393D01*
X020627Y02711D01*
X020646Y027156D01*
X020705D01*
X020831Y02719D01*
X020943Y027255D01*
X021035Y027347D01*
X0211Y027459D01*
X021114Y027512D01*
X021166D01*
X02118Y027459D01*
X021245Y027347D01*
X021337Y027255D01*
X021449Y02719D01*
X021575Y027156D01*
X02159D01*
Y02765D01*
Y028144D01*
X021575D01*
X021449Y02811D01*
X021337Y028045D01*
X021245Y027953D01*
X02118Y027841D01*
X021166Y027788D01*
X021114D01*
X0211Y027841D01*
X021035Y027953D01*
X020943Y028045D01*
X020831Y02811D01*
X020705Y028144D01*
X020575D01*
X020449Y02811D01*
X020337Y028045D01*
X020245Y027953D01*
X02018Y027841D01*
X020166Y027788D01*
X020114D01*
X0201Y027841D01*
X020035Y027953D01*
X019943Y028045D01*
X019831Y02811D01*
X019705Y028144D01*
X019575D01*
X019449Y02811D01*
X019337Y028045D01*
X019245Y027953D01*
X01918Y027841D01*
X019166Y027788D01*
X019114D01*
X0191Y027841D01*
X019035Y027953D01*
X018943Y028045D01*
X018831Y02811D01*
X018705Y028144D01*
X018575D01*
X018449Y02811D01*
X018337Y028045D01*
X018245Y027953D01*
X01818Y027841D01*
X018166Y027788D01*
X018114D01*
X0181Y027841D01*
X018035Y027953D01*
X017943Y028045D01*
X017831Y02811D01*
X017705Y028144D01*
X017575D01*
X017449Y02811D01*
X017337Y028045D01*
X017245Y027953D01*
X01718Y027841D01*
X017166Y027788D01*
X017114D01*
X0171Y027841D01*
X017035Y027953D01*
X016943Y028045D01*
X016831Y02811D01*
X016705Y028144D01*
X016575D01*
X016449Y02811D01*
X016337Y028045D01*
X016245Y027953D01*
X01618Y027841D01*
X016166Y027788D01*
X016114D01*
X0161Y027841D01*
X016035Y027953D01*
X015943Y028045D01*
X015831Y02811D01*
X015705Y028144D01*
X01569D01*
Y02765D01*
Y027156D01*
X015705D01*
X015831Y02719D01*
X015943Y027255D01*
X016035Y027347D01*
X0161Y027459D01*
X016114Y027512D01*
X016166D01*
X01618Y027459D01*
X016245Y027347D01*
X016337Y027255D01*
X016449Y02719D01*
X016575Y027156D01*
X016705D01*
X016816Y027186D01*
X017058Y026944D01*
X017039Y026898D01*
X010644D01*
X010566Y026882D01*
X0105Y026838D01*
X0105Y026838D01*
X009526Y025864D01*
X009415Y025894D01*
X009285D01*
X009159Y02586D01*
X009047Y025795D01*
X008955Y025703D01*
X00889Y025591D01*
X008876Y025538D01*
X008824D01*
X00881Y025591D01*
X008745Y025703D01*
X008653Y025795D01*
X008541Y02586D01*
X008415Y025894D01*
X008285D01*
X008159Y02586D01*
X008047Y025795D01*
X007955Y025703D01*
X00789Y025591D01*
X007876Y025538D01*
X007824D01*
X00781Y025591D01*
X007745Y025703D01*
X007653Y025795D01*
X007541Y02586D01*
X007415Y025894D01*
X007349D01*
X007243Y025999D01*
X007225Y026027D01*
X006456Y026795D01*
X006374Y02685D01*
X006276Y02687D01*
X00387D01*
X00363Y02711D01*
X003649Y027156D01*
X003705D01*
X003831Y02719D01*
X003943Y027255D01*
X004035Y027347D01*
X0041Y027459D01*
X004114Y027512D01*
X004166D01*
X00418Y027459D01*
X004245Y027347D01*
X004337Y027255D01*
X004449Y02719D01*
X004575Y027156D01*
X004705D01*
X004831Y02719D01*
X004943Y027255D01*
X005035Y027347D01*
X0051Y027459D01*
X005114Y027512D01*
X005166D01*
X00518Y027459D01*
X005245Y027347D01*
X005337Y027255D01*
X005449Y02719D01*
X005575Y027156D01*
X005705D01*
X005831Y02719D01*
X005943Y027255D01*
X006035Y027347D01*
X0061Y027459D01*
X006114Y027512D01*
X006166D01*
X00618Y027459D01*
X006245Y027347D01*
X006337Y027255D01*
X006449Y02719D01*
X006575Y027156D01*
X006705D01*
X006831Y02719D01*
X006943Y027255D01*
X007035Y027347D01*
X0071Y027459D01*
X007114Y027512D01*
X007166D01*
X00718Y027459D01*
X007245Y027347D01*
X007337Y027255D01*
X007449Y02719D01*
X007575Y027156D01*
X007705D01*
X007831Y02719D01*
X007943Y027255D01*
X008035Y027347D01*
X0081Y027459D01*
X008114Y027512D01*
X008166D01*
X00818Y027459D01*
X008245Y027347D01*
X008337Y027255D01*
X008449Y02719D01*
X008575Y027156D01*
X008705D01*
X008831Y02719D01*
X008943Y027255D01*
X009035Y027347D01*
X0091Y027459D01*
X009114Y027512D01*
X009166D01*
X00918Y027459D01*
X009245Y027347D01*
X009337Y027255D01*
X009449Y02719D01*
X009575Y027156D01*
X009705D01*
X009831Y02719D01*
X009943Y027255D01*
X010035Y027347D01*
X0101Y027459D01*
X010114Y027512D01*
X010166D01*
X01018Y027459D01*
X010245Y027347D01*
X010337Y027255D01*
X010449Y02719D01*
X010575Y027156D01*
X010705D01*
X010831Y02719D01*
X010943Y027255D01*
X011035Y027347D01*
X0111Y027459D01*
X011114Y027512D01*
X011166D01*
X01118Y027459D01*
X011245Y027347D01*
X011337Y027255D01*
X011449Y02719D01*
X011575Y027156D01*
X011705D01*
X011831Y02719D01*
X011943Y027255D01*
X012035Y027347D01*
X0121Y027459D01*
X012114Y027512D01*
X012166D01*
X01218Y027459D01*
X012245Y027347D01*
X012337Y027255D01*
X012449Y02719D01*
X012575Y027156D01*
X012705D01*
X012831Y02719D01*
X012943Y027255D01*
X013035Y027347D01*
X0131Y027459D01*
X013114Y027512D01*
X013166D01*
X01318Y027459D01*
X013245Y027347D01*
X013337Y027255D01*
X013449Y02719D01*
X013575Y027156D01*
X013705D01*
X013831Y02719D01*
X013943Y027255D01*
X014035Y027347D01*
X0141Y027459D01*
X014114Y027512D01*
X014166D01*
X01418Y027459D01*
X014245Y027347D01*
X014337Y027255D01*
X014449Y02719D01*
X014575Y027156D01*
X014705D01*
X014831Y02719D01*
X014943Y027255D01*
X015035Y027347D01*
X0151Y027459D01*
X015114Y027512D01*
X015166D01*
X01518Y027459D01*
X015245Y027347D01*
X015337Y027255D01*
X015449Y02719D01*
X015575Y027156D01*
X01559D01*
Y02765D01*
Y028144D01*
X015575D01*
X015449Y02811D01*
X015337Y028045D01*
X015245Y027953D01*
X01518Y027841D01*
X015166Y027788D01*
X015114D01*
X0151Y027841D01*
X015035Y027953D01*
X014943Y028045D01*
X014831Y02811D01*
X014705Y028144D01*
X014575D01*
X014449Y02811D01*
X014337Y028045D01*
X014245Y027953D01*
X01418Y027841D01*
X014166Y027788D01*
X014114D01*
X0141Y027841D01*
X014035Y027953D01*
X013943Y028045D01*
X013831Y02811D01*
X013705Y028144D01*
X013575D01*
X013558Y028139D01*
X013533Y028182D01*
X013846Y028495D01*
X023179D01*
X024937Y026737D01*
Y02186D01*
X020932Y017855D01*
X008465D01*
X008367Y017836D01*
X008285Y01778D01*
X005218Y014714D01*
X004915D01*
X004804Y014699D01*
X004701Y014656D01*
X004612Y014588D01*
X004544Y014499D01*
X004501Y014396D01*
X004486Y014285D01*
X004501Y014174D01*
X004544Y014071D01*
X004612Y013982D01*
X004701Y013914D01*
X004804Y013871D01*
X004915Y013856D01*
X005265D01*
X005376Y013871D01*
X005479Y013914D01*
X005568Y013982D01*
X005636Y014071D01*
X005679Y014174D01*
X005694Y014285D01*
X005679Y014396D01*
X005662Y014437D01*
X008571Y017345D01*
X010819D01*
X010838Y017299D01*
X008243Y014703D01*
X008165Y014714D01*
X007815D01*
X007704Y014699D01*
X007601Y014656D01*
X007512Y014588D01*
X007444Y014499D01*
X007401Y014396D01*
X007386Y014285D01*
X007401Y014174D01*
X007444Y014071D01*
X007512Y013982D01*
X007601Y013914D01*
X007704Y013871D01*
X007815Y013856D01*
X008165D01*
X008276Y013871D01*
X008379Y013914D01*
X008468Y013982D01*
X008536Y014071D01*
X008579Y014174D01*
X008594Y014285D01*
X008588Y014328D01*
X011206Y016945D01*
X011269D01*
X011288Y016899D01*
X01071Y01632D01*
X010654Y016238D01*
X010635Y01614D01*
Y014703D01*
X010604Y014699D01*
X010501Y014656D01*
X010412Y014588D01*
X010344Y014499D01*
X010301Y014396D01*
X010286Y014285D01*
X010301Y014174D01*
X010344Y014071D01*
X010412Y013982D01*
X010501Y013914D01*
X010604Y013871D01*
X010715Y013856D01*
X011065D01*
X011176Y013871D01*
X011279Y013914D01*
X011368Y013982D01*
X011436Y014071D01*
X011479Y014174D01*
X011494Y014285D01*
X011479Y014396D01*
X011436Y014499D01*
X011368Y014588D01*
X011279Y014656D01*
X011176Y014699D01*
X011145Y014703D01*
Y016034D01*
X011656Y016545D01*
X011992D01*
X012007Y016495D01*
X011934Y016446D01*
X011824Y016336D01*
X011737Y016207D01*
X011678Y016063D01*
X011648Y015911D01*
Y015755D01*
X011678Y015603D01*
X011737Y015459D01*
X011824Y01533D01*
X011934Y01522D01*
X012063Y015134D01*
X012206Y015074D01*
X012359Y015044D01*
X012514D01*
X012667Y015074D01*
X01281Y015134D01*
X01294Y01522D01*
X013049Y01533D01*
X013136Y015459D01*
X013195Y015603D01*
X013226Y015755D01*
Y015911D01*
X013195Y016063D01*
X013136Y016207D01*
X013049Y016336D01*
X01294Y016446D01*
X012866Y016495D01*
X012881Y016545D01*
X014469D01*
X014484Y016495D01*
X01441Y016446D01*
X014301Y016336D01*
X014214Y016207D01*
X014155Y016063D01*
X014124Y015911D01*
Y015755D01*
X014155Y015603D01*
X014214Y015459D01*
X014301Y01533D01*
X01441Y01522D01*
X01454Y015134D01*
X014683Y015074D01*
X014836Y015044D01*
X014991D01*
X015144Y015074D01*
X015287Y015134D01*
X015416Y01522D01*
X015526Y01533D01*
X015613Y015459D01*
X015672Y015603D01*
X015702Y015755D01*
Y015911D01*
X015672Y016063D01*
X015613Y016207D01*
X015526Y016336D01*
X015416Y016446D01*
X015343Y016495D01*
X015358Y016545D01*
X018214D01*
X018235Y016495D01*
X016449Y014709D01*
X016415Y014714D01*
X016065D01*
X015954Y014699D01*
X015851Y014656D01*
X015762Y014588D01*
X015694Y014499D01*
X015651Y014396D01*
X015636Y014285D01*
X015651Y014174D01*
X015694Y014071D01*
X015762Y013982D01*
X015851Y013914D01*
X015954Y013871D01*
X016065Y013856D01*
X016415D01*
X016526Y013871D01*
X016629Y013914D01*
X016718Y013982D01*
X016786Y014071D01*
X016829Y014174D01*
X016844Y014285D01*
X016832Y014372D01*
X018556Y016095D01*
X021369D01*
X021388Y016049D01*
X019879Y01454D01*
X019605D01*
X019568Y014588D01*
X019479Y014656D01*
X019376Y014699D01*
X019265Y014714D01*
X018915D01*
X018804Y014699D01*
X018701Y014656D01*
X018612Y014588D01*
X018544Y014499D01*
X018501Y014396D01*
X018486Y014285D01*
X018501Y014174D01*
X018544Y014071D01*
X018612Y013982D01*
X018701Y013914D01*
X018804Y013871D01*
X018915Y013856D01*
X019265D01*
X019376Y013871D01*
X019479Y013914D01*
X019568Y013982D01*
X019605Y01403D01*
X019985D01*
X020083Y01405D01*
X020165Y014105D01*
X026949Y020888D01*
X026995Y020869D01*
Y020593D01*
X02181Y015408D01*
X021755Y015325D01*
X021735Y015227D01*
Y014703D01*
X021704Y014699D01*
X021601Y014656D01*
X021512Y014588D01*
X021444Y014499D01*
X021401Y014396D01*
X021386Y014285D01*
X021401Y014174D01*
X021444Y014071D01*
X021512Y013982D01*
X021601Y013914D01*
X021704Y013871D01*
X021815Y013856D01*
X022165D01*
X022276Y013871D01*
X022379Y013914D01*
X022468Y013982D01*
X022536Y014071D01*
X022579Y014174D01*
X022594Y014285D01*
X022579Y014396D01*
X022536Y014499D01*
X022468Y014588D01*
X022379Y014656D01*
X022276Y014699D01*
X022245Y014703D01*
Y015122D01*
X023336Y016212D01*
X023378Y016184D01*
X023328Y016063D01*
X023298Y015911D01*
Y015755D01*
X023328Y015603D01*
X023387Y015459D01*
X023474Y01533D01*
X023584Y01522D01*
X023713Y015134D01*
X023856Y015074D01*
X024009Y015044D01*
X024164D01*
X024317Y015074D01*
X02446Y015134D01*
X02459Y01522D01*
X024699Y01533D01*
X024786Y015459D01*
X024845Y015603D01*
X024876Y015755D01*
Y015911D01*
X024845Y016063D01*
X024786Y016207D01*
X024699Y016336D01*
X02459Y016446D01*
X02446Y016532D01*
X024317Y016592D01*
X024164Y016622D01*
X024009D01*
X023856Y016592D01*
X023736Y016542D01*
X023707Y016584D01*
X027349Y020226D01*
X027395Y020207D01*
Y015666D01*
X024334Y012605D01*
X023021D01*
X022969Y012657D01*
X02292Y01273D01*
X022595Y013056D01*
Y01306D01*
X02259Y013085D01*
Y01366D01*
X02139D01*
Y01281D01*
X022133D01*
X02216Y01277D01*
X022511Y012419D01*
X02256Y012345D01*
X022654Y012251D01*
X022635Y012205D01*
X019696D01*
X019345Y012556D01*
Y01286D01*
X01969D01*
Y01371D01*
X01849D01*
Y01286D01*
X018835D01*
Y01245D01*
X018855Y012352D01*
X01891Y01227D01*
X019328Y011851D01*
X019309Y011805D01*
X018256D01*
X01684Y01322D01*
Y01371D01*
X01564D01*
Y01286D01*
X01648D01*
X017888Y011451D01*
X017869Y011405D01*
X013371D01*
X01149Y013285D01*
Y01366D01*
X01029D01*
Y01281D01*
X011245D01*
X013003Y011051D01*
X012984Y011005D01*
X010921D01*
X00859Y013335D01*
Y01371D01*
X00739D01*
Y01286D01*
X008345D01*
X010553Y010651D01*
X010534Y010605D01*
X008421D01*
X00569Y013335D01*
Y01371D01*
X00449D01*
Y01286D01*
X005445D01*
X008105Y0102D01*
X008084Y01015D01*
X002092D01*
Y037767D01*
X002142Y037787D01*
X003161Y036769D01*
X003146Y036715D01*
Y036585D01*
X00318Y036459D01*
X003245Y036347D01*
X003337Y036255D01*
X003449Y03619D01*
X003575Y036156D01*
X003705D01*
X003831Y03619D01*
X003943Y036255D01*
X004035Y036347D01*
X0041Y036459D01*
X004114Y036512D01*
X004166D01*
X00418Y036459D01*
X004245Y036347D01*
X004337Y036255D01*
X004449Y03619D01*
X004575Y036156D01*
X004705D01*
X004831Y03619D01*
X004943Y036255D01*
X005035Y036347D01*
X0051Y036459D01*
X005114Y036512D01*
X005166D01*
X00518Y036459D01*
X005245Y036347D01*
X005337Y036255D01*
X005449Y03619D01*
X005575Y036156D01*
X005705D01*
X005831Y03619D01*
X005943Y036255D01*
X006035Y036347D01*
X0061Y036459D01*
X006114Y036512D01*
X006166D01*
X00618Y036459D01*
X006245Y036347D01*
X006337Y036255D01*
X006449Y03619D01*
X006575Y036156D01*
X006705D01*
X006831Y03619D01*
X006943Y036255D01*
X007035Y036347D01*
X0071Y036459D01*
X007114Y036512D01*
X007166D01*
X00718Y036459D01*
X007245Y036347D01*
X007337Y036255D01*
X007449Y03619D01*
X007575Y036156D01*
X007705D01*
X007831Y03619D01*
X007943Y036255D01*
X008035Y036347D01*
X0081Y036459D01*
X008114Y036512D01*
X008166D01*
X00818Y036459D01*
X008245Y036347D01*
X008337Y036255D01*
X008449Y03619D01*
X008575Y036156D01*
X00859D01*
Y03665D01*
Y037144D01*
X008575D01*
X008449Y03711D01*
X008337Y037045D01*
X008245Y036953D01*
X00818Y036841D01*
X008166Y036788D01*
X008114D01*
X0081Y036841D01*
X008035Y036953D01*
X007943Y037045D01*
X007831Y03711D01*
X007705Y037144D01*
X007575D01*
X007449Y03711D01*
X007337Y037045D01*
X007245Y036953D01*
X00718Y036841D01*
X007166Y036788D01*
X007114D01*
X0071Y036841D01*
X007035Y036953D01*
X006943Y037045D01*
X006831Y03711D01*
X006705Y037144D01*
X006575D01*
X006449Y03711D01*
X006337Y037045D01*
X006245Y036953D01*
X00618Y036841D01*
X006166Y036788D01*
X006114D01*
X0061Y036841D01*
X006035Y036953D01*
X005943Y037045D01*
X005831Y03711D01*
X005705Y037144D01*
X005575D01*
X005449Y03711D01*
X005337Y037045D01*
X005245Y036953D01*
X00518Y036841D01*
X005166Y036788D01*
X005114D01*
X0051Y036841D01*
X005035Y036953D01*
X004943Y037045D01*
X004831Y03711D01*
X004705Y037144D01*
X004575D01*
X004449Y03711D01*
X004337Y037045D01*
X004245Y036953D01*
X00418Y036841D01*
X004166Y036788D01*
X004114D01*
X0041Y036841D01*
X004035Y036953D01*
X003943Y037045D01*
X003831Y03711D01*
X003705Y037144D01*
X003575D01*
X003521Y037129D01*
X002545Y038106D01*
Y04125D01*
X00299D01*
Y04215D01*
Y04305D01*
X002545D01*
Y043284D01*
X004771Y04551D01*
X006475D01*
Y045146D01*
X005261Y043932D01*
X005206Y043849D01*
X005187Y043752D01*
Y04305D01*
X004842D01*
Y04125D01*
X006042D01*
Y04305D01*
X005696D01*
Y043646D01*
X006836Y044785D01*
X007305D01*
Y04551D01*
X022296D01*
X022315Y045464D01*
X022306Y045455D01*
X022251Y04536D01*
X022223Y045255D01*
Y045145D01*
X022251Y04504D01*
X022306Y044945D01*
X022383Y044868D01*
X022478Y044813D01*
X022583Y044785D01*
X022693D01*
X024408Y043069D01*
X024491Y043014D01*
X024588Y042995D01*
X025297D01*
X025371Y042897D01*
X025474Y042818D01*
X025595Y042769D01*
X025723Y042752D01*
X026157D01*
X026285Y042769D01*
X026406Y042818D01*
X026509Y042897D01*
X026588Y043001D01*
X026638Y043121D01*
X026655Y04325D01*
X026638Y043378D01*
X026588Y043499D01*
X026509Y043602D01*
X026406Y043681D01*
X026285Y043731D01*
X026157Y043748D01*
X025723D01*
X025595Y043731D01*
X025474Y043681D01*
X025371Y043602D01*
X025297Y043505D01*
X024694D01*
X023053Y045146D01*
Y045255D01*
X023025Y04536D01*
X02297Y045455D01*
X022961Y045464D01*
X02298Y04551D01*
X024953D01*
X025241Y045221D01*
X025226Y0451D01*
X025242Y044971D01*
X025292Y044851D01*
X025371Y044748D01*
X025474Y044669D01*
X025595Y044619D01*
X025723Y044602D01*
X026077D01*
X029845Y040834D01*
Y038595D01*
X029705D01*
Y037805D01*
X029845D01*
Y033645D01*
X029705D01*
Y032855D01*
X030495D01*
Y033645D01*
X030355D01*
Y037805D01*
X030495D01*
Y038595D01*
X030355D01*
Y04094D01*
X030336Y041038D01*
X03028Y04112D01*
X026571Y044829D01*
X026588Y044851D01*
X026638Y044971D01*
X026655Y0451D01*
X026638Y045229D01*
X026588Y045349D01*
X026509Y045452D01*
X026406Y045531D01*
X026285Y045581D01*
X026157Y045598D01*
X025723D01*
X025602Y045582D01*
X025239Y045945D01*
X025156Y046D01*
X025059Y04602D01*
X004665D01*
X004567Y046D01*
X004485Y045945D01*
X002142Y043603D01*
X002092Y043623D01*
Y046108D01*
X030958D01*
Y010092D01*
D02*
G37*
%LPC*%
G36*
X00364Y04305D02*
X00309D01*
Y0422D01*
X00364D01*
Y04305D01*
D02*
G37*
G36*
Y0421D02*
X00309D01*
Y04125D01*
X00364D01*
Y0421D01*
D02*
G37*
G36*
X02665Y041893D02*
X02523D01*
Y040906D01*
X02665D01*
Y041893D01*
D02*
G37*
G36*
X00516Y04086D02*
X00431D01*
Y04031D01*
X00516D01*
Y04086D01*
D02*
G37*
G36*
X00421D02*
X00336D01*
Y04031D01*
X00421D01*
Y04086D01*
D02*
G37*
G36*
X00516Y04021D02*
X00431D01*
Y03966D01*
X00516D01*
Y04021D01*
D02*
G37*
G36*
X00421D02*
X00336D01*
Y03966D01*
X00421D01*
Y04021D01*
D02*
G37*
G36*
X006945Y038725D02*
X00694D01*
Y03836D01*
X007305D01*
Y038365D01*
X007277Y03847D01*
X007222Y038565D01*
X007145Y038642D01*
X00705Y038697D01*
X006945Y038725D01*
D02*
G37*
G36*
X00684D02*
X006835D01*
X00673Y038697D01*
X006635Y038642D01*
X006558Y038565D01*
X006503Y03847D01*
X006475Y038365D01*
Y03836D01*
X00684D01*
Y038725D01*
D02*
G37*
G36*
X022693Y038725D02*
X022688D01*
Y03836D01*
X023053D01*
Y038365D01*
X023025Y03847D01*
X02297Y038565D01*
X022893Y038642D01*
X022798Y038697D01*
X022693Y038725D01*
D02*
G37*
G36*
X022588D02*
X022583D01*
X022478Y038697D01*
X022383Y038642D01*
X022306Y038565D01*
X022251Y03847D01*
X022223Y038365D01*
Y03836D01*
X022588D01*
Y038725D01*
D02*
G37*
G36*
X025721Y038659D02*
X025474D01*
Y038334D01*
X025721D01*
Y038659D01*
D02*
G37*
G36*
X025374D02*
X025127D01*
Y038334D01*
X025374D01*
Y038659D01*
D02*
G37*
G36*
X025721Y038234D02*
X025474D01*
Y037908D01*
X025721D01*
Y038234D01*
D02*
G37*
G36*
X025374D02*
X025127D01*
Y037908D01*
X025374D01*
Y038234D01*
D02*
G37*
G36*
X007305Y03826D02*
X00694D01*
Y037895D01*
X006945D01*
X00705Y037924D01*
X007145Y037978D01*
X007222Y038055D01*
X007277Y03815D01*
X007305Y038256D01*
Y03826D01*
D02*
G37*
G36*
X00684D02*
X006475D01*
Y038256D01*
X006503Y03815D01*
X006558Y038055D01*
X006635Y037978D01*
X00673Y037924D01*
X006835Y037895D01*
X00684D01*
Y03826D01*
D02*
G37*
G36*
X025347Y039526D02*
X024753D01*
Y038774D01*
X025347D01*
Y038895D01*
X026044D01*
X026705Y038235D01*
Y038148D01*
X026732Y038047D01*
X026784Y037957D01*
X026857Y037884D01*
X026947Y037832D01*
X027048Y037805D01*
X027152D01*
X027253Y037832D01*
X027343Y037884D01*
X027416Y037957D01*
X027468Y038047D01*
X027495Y038148D01*
Y038252D01*
X027468Y038353D01*
X027416Y038443D01*
X027343Y038516D01*
X027253Y038568D01*
X027152Y038595D01*
X027065D01*
X02633Y03933D01*
X026248Y039385D01*
X02615Y039405D01*
X025347D01*
Y039526D01*
D02*
G37*
G36*
X025721Y034617D02*
X025474D01*
Y034291D01*
X025721D01*
Y034617D01*
D02*
G37*
G36*
X025374D02*
X025127D01*
Y034291D01*
X025374D01*
Y034617D01*
D02*
G37*
G36*
X021705Y028144D02*
X02169D01*
Y0277D01*
X022134D01*
Y027715D01*
X0221Y027841D01*
X022035Y027953D01*
X021943Y028045D01*
X021831Y02811D01*
X021705Y028144D01*
D02*
G37*
G36*
X022134Y0276D02*
X02169D01*
Y027156D01*
X021705D01*
X021831Y02719D01*
X021943Y027255D01*
X022035Y027347D01*
X0221Y027459D01*
X022134Y027585D01*
Y0276D01*
D02*
G37*
G36*
X0063Y025894D02*
X005856D01*
Y02545D01*
X0063D01*
Y025894D01*
D02*
G37*
G36*
X01795Y02535D02*
X017506D01*
Y024906D01*
X01795D01*
Y02535D01*
D02*
G37*
G36*
X0063D02*
X005856D01*
Y024906D01*
X0063D01*
Y02535D01*
D02*
G37*
G36*
X024164Y025992D02*
X024009D01*
X023856Y025962D01*
X023713Y025902D01*
X023584Y025816D01*
X023474Y025706D01*
X023387Y025577D01*
X023328Y025433D01*
X023298Y025281D01*
Y025125D01*
X023328Y024973D01*
X023387Y024829D01*
X023474Y0247D01*
X023584Y02459D01*
X023713Y024504D01*
X023856Y024444D01*
X024009Y024414D01*
X024164D01*
X024317Y024444D01*
X02446Y024504D01*
X02459Y02459D01*
X024699Y0247D01*
X024786Y024829D01*
X024845Y024973D01*
X024876Y025125D01*
Y025281D01*
X024845Y025433D01*
X024786Y025577D01*
X024699Y025706D01*
X02459Y025816D01*
X02446Y025902D01*
X024317Y025962D01*
X024164Y025992D01*
D02*
G37*
G36*
X003341D02*
X003186D01*
X003033Y025962D01*
X00289Y025902D01*
X00276Y025816D01*
X002651Y025706D01*
X002564Y025577D01*
X002505Y025433D01*
X002474Y025281D01*
Y025125D01*
X002505Y024973D01*
X002564Y024829D01*
X002651Y0247D01*
X00276Y02459D01*
X00289Y024504D01*
X003033Y024444D01*
X003186Y024414D01*
X003341D01*
X003494Y024444D01*
X003637Y024504D01*
X003766Y02459D01*
X003876Y0247D01*
X003963Y024829D01*
X004022Y024973D01*
X004052Y025125D01*
Y025281D01*
X004022Y025433D01*
X003963Y025577D01*
X003876Y025706D01*
X003766Y025816D01*
X003637Y025902D01*
X003494Y025962D01*
X003341Y025992D01*
D02*
G37*
G36*
Y016622D02*
X003186D01*
X003033Y016592D01*
X00289Y016532D01*
X00276Y016446D01*
X002651Y016336D01*
X002564Y016207D01*
X002505Y016063D01*
X002474Y015911D01*
Y015755D01*
X002505Y015603D01*
X002564Y015459D01*
X002651Y01533D01*
X00276Y01522D01*
X00289Y015134D01*
X003033Y015074D01*
X003186Y015044D01*
X003341D01*
X003494Y015074D01*
X003637Y015134D01*
X003766Y01522D01*
X003876Y01533D01*
X003963Y015459D01*
X004022Y015603D01*
X004052Y015755D01*
Y015911D01*
X004022Y016063D01*
X003963Y016207D01*
X003876Y016336D01*
X003766Y016446D01*
X003637Y016532D01*
X003494Y016592D01*
X003341Y016622D01*
D02*
G37*
%LPD*%
D17*
X02505Y03915D02*
D03*
X025424Y038284D02*
D03*
X024676D02*
D03*
X02505Y035533D02*
D03*
X025424Y034667D02*
D03*
X024676D02*
D03*
D18*
X025044Y03655D02*
D03*
X024256D02*
D03*
X025044Y03735D02*
D03*
X024256D02*
D03*
X017873Y035439D02*
D03*
X017086D02*
D03*
X017873Y034589D02*
D03*
X017086D02*
D03*
X017873Y033789D02*
D03*
X017086D02*
D03*
X017873Y033039D02*
D03*
X017086D02*
D03*
X017873Y032239D02*
D03*
X017086D02*
D03*
X017873Y031439D02*
D03*
X017086D02*
D03*
D34*
X008001Y014389D02*
X008289D01*
X00799Y0144D02*
X008001Y014389D01*
X008289D02*
X0111Y0172D01*
X021203D01*
X01155Y0168D02*
X021369D01*
X01089Y01614D02*
X01155Y0168D01*
X021369D02*
X02605Y021481D01*
X01089Y0144D02*
Y01614D01*
X021203Y0172D02*
X02565Y021647D01*
X023616Y02955D02*
X02605Y027116D01*
X017086Y036006D02*
X020996D01*
X017086Y035986D02*
X017106Y036006D01*
X009506D02*
X017086D01*
Y034589D02*
Y035986D01*
X006512Y024738D02*
X00815Y0231D01*
X006512Y024738D02*
Y025238D01*
X00635Y0254D02*
X006512Y025238D01*
X01624Y014285D02*
X016385D01*
X01845Y01635D01*
X021484D01*
X003145Y041076D02*
X00396Y04026D01*
X00304Y04215D02*
X003145Y042045D01*
Y041076D02*
Y042045D01*
X005442Y04215D02*
Y043752D01*
X00689Y0452D01*
X00456Y04026D02*
X006447Y038373D01*
X0287Y0332D02*
Y0351D01*
X02665Y0325D02*
X028D01*
X0287Y0332D01*
X02555Y038158D02*
X028608Y0351D01*
X0287D02*
Y03855D01*
X028608Y0351D02*
X0287D01*
X025424Y038205D02*
Y038284D01*
X025471Y038158D02*
X02555D01*
X025424Y038205D02*
X025471Y038158D01*
X025424Y033726D02*
X02665Y0325D01*
X023776Y039676D02*
X027574D01*
X0287Y03855D01*
X022701Y038601D02*
X023776Y039676D01*
X022638Y03831D02*
X022701Y038373D01*
Y038601D01*
X0103Y03831D02*
X022638D01*
X02615Y03915D02*
X0271Y0382D01*
X02505Y03915D02*
X02615D01*
X025424Y033726D02*
Y034667D01*
X02505Y035454D02*
X025097Y035407D01*
X02551D01*
X027044Y033873D01*
X02505Y035454D02*
Y035533D01*
X027044Y033306D02*
Y033873D01*
Y033306D02*
X0271Y03325D01*
X0301D02*
Y0382D01*
Y04094D01*
X00229Y038D02*
Y04339D01*
Y038D02*
X00364Y03665D01*
X00229Y04339D02*
X004665Y045765D01*
X025059D02*
X025723Y0451D01*
X02594D01*
X004665Y045765D02*
X025059D01*
X02625Y04479D02*
X0301Y04094D01*
X02594Y0451D02*
X026025D01*
X02625Y044875D01*
Y04479D02*
Y044875D01*
X018Y0231D02*
X021978D01*
X023092Y024214D01*
Y026198D01*
X014959Y0235D02*
X017503Y026044D01*
X00865Y0235D02*
X014959D01*
X017503Y026044D02*
X018497D01*
X018644Y025897D01*
X019Y0254D01*
X018Y0231D02*
Y0254D01*
X00815Y0231D02*
X018D01*
X00735Y0248D02*
X00865Y0235D01*
X00735Y0248D02*
Y025532D01*
X02164Y02765D02*
X023092Y026198D01*
X0024Y027394D02*
Y03041D01*
Y027394D02*
X004591Y025203D01*
X0024Y03041D02*
X00864Y03665D01*
X00285Y02753D02*
Y02935D01*
Y02753D02*
X003765Y026615D01*
X00285Y02935D02*
X009506Y036006D01*
X003765Y026615D02*
X006276D01*
X007045Y025846D01*
Y025837D02*
Y025846D01*
Y025837D02*
X00735Y025532D01*
X004591Y025203D02*
X006153D01*
X00635Y0254D01*
X01564Y02765D02*
X016284Y028294D01*
X020996D01*
X02164Y02765D01*
X017873Y031439D02*
X023989D01*
X023284Y02875D02*
X025192Y026842D01*
X024113Y03075D02*
X02725Y027613D01*
X01254Y02955D02*
X023616D01*
X01134Y03035D02*
X023947D01*
X01194Y02995D02*
X023781D01*
X02345Y02915D02*
X02565Y02695D01*
X01374Y02875D02*
X023284D01*
X023781Y02995D02*
X02645Y027281D01*
X023947Y03035D02*
X02685Y027447D01*
X01025Y03075D02*
X024113D01*
X01314Y02915D02*
X02345D01*
X017873Y032239D02*
X023755D01*
X017873Y033039D02*
X02352D01*
X017873Y033789D02*
X023336D01*
X023102Y034589D02*
X02925Y028441D01*
X017873Y034589D02*
X023102D01*
X017873Y035439D02*
X022817D01*
X017086Y033789D02*
Y034589D01*
Y033039D02*
Y033789D01*
Y032239D02*
Y033039D01*
Y031439D02*
Y032239D01*
X020996Y036006D02*
X02164Y03665D01*
X01164Y02765D02*
X01314Y02915D01*
X01064Y02765D02*
X01254Y02955D01*
X00964Y02765D02*
X01194Y02995D01*
X00864Y02765D02*
X01134Y03035D01*
X01264Y02765D02*
X01374Y02875D01*
X00764Y02814D02*
X01025Y03075D01*
X00509Y0144D02*
X005265D01*
X008465Y0176D01*
X021037D01*
X025192Y021755D01*
Y026842D01*
X02199Y014285D02*
Y015227D01*
X02725Y020487D01*
X02765Y01556D02*
Y027778D01*
X023989Y031439D02*
X02765Y027778D01*
X02685Y02115D02*
Y027447D01*
X02725Y020487D02*
Y027613D01*
X019985Y014285D02*
X02685Y02115D01*
X021484Y01635D02*
X02645Y021316D01*
Y027281D01*
X023755Y032239D02*
X02805Y027944D01*
X022817Y035439D02*
X02965Y028607D01*
X023336Y033789D02*
X02885Y028275D01*
X02605Y021481D02*
Y027116D01*
X02352Y033039D02*
X02845Y02811D01*
X02805Y015394D02*
Y027944D01*
X02845Y015229D02*
Y02811D01*
X02565Y021647D02*
Y02695D01*
X025103Y01075D02*
X02925Y014897D01*
Y028441D01*
X024606Y01195D02*
X02805Y015394D01*
X025268Y01035D02*
X02965Y014732D01*
X024937Y01115D02*
X02885Y015063D01*
X02444Y01235D02*
X02765Y01556D01*
X02965Y014732D02*
Y028607D01*
X024771Y01155D02*
X02845Y015229D01*
X02885Y015063D02*
Y028275D01*
X01909Y014285D02*
X019985D01*
X00764Y02765D02*
Y02814D01*
X01815Y01155D02*
X024771D01*
X013265Y01115D02*
X024937D01*
X010815Y01075D02*
X025103D01*
X008315Y01035D02*
X025268D01*
X01959Y01195D02*
X024606D01*
X011065Y01335D02*
X013265Y01115D01*
X005265Y0134D02*
X008315Y01035D01*
X00509Y0134D02*
X005265D01*
X008165D02*
X010815Y01075D01*
X00799Y0134D02*
X008165D01*
X02274Y012526D02*
Y01255D01*
X02199Y013235D02*
X022165D01*
X022916Y01235D02*
X02444D01*
X02234Y01295D02*
Y01306D01*
X022165Y013235D02*
X02234Y01306D01*
Y01295D02*
X02274Y01255D01*
Y012526D02*
X022916Y01235D01*
X01089Y01335D02*
X011065D01*
X01909Y01245D02*
Y013285D01*
X016415D02*
X01815Y01155D01*
X01909Y01245D02*
X01959Y01195D01*
X01624Y013285D02*
X016415D01*
X0103Y03831D02*
X0103Y03831D01*
X00689Y03831D02*
X0103D01*
X00864Y03665D02*
X0103Y03831D01*
X024588Y04325D02*
X02594D01*
X022638Y0452D02*
X024588Y04325D01*
X006447Y038373D02*
X006827D01*
X00426Y04026D02*
X00456D01*
X006827Y038373D02*
X00689Y03831D01*
X00396Y04026D02*
X00426D01*
D35*
X0222Y023967D02*
Y025249D01*
X019799Y02765D02*
X0222Y025249D01*
X01964Y02765D02*
X019799D01*
X020112Y024088D02*
Y025288D01*
Y024088D02*
X02035Y02385D01*
X022083D01*
X0222Y023967D01*
X024898Y037496D02*
X024947D01*
X025044Y037399D01*
X024676Y037718D02*
Y038284D01*
Y037718D02*
X024898Y037496D01*
X025044Y03735D02*
Y037399D01*
X024947Y036297D02*
Y036453D01*
X02435Y0357D02*
X024947Y036297D01*
X02435Y03496D02*
Y0357D01*
X024947Y036453D02*
X025044Y03655D01*
X024467Y034843D02*
X024579D01*
X02435Y03496D02*
X024467Y034843D01*
X024676Y034667D02*
Y034746D01*
X024579Y034843D02*
X024676Y034746D01*
X024256Y03655D02*
Y036599D01*
X02411Y036696D02*
X024159D01*
X024256Y036599D01*
X018334Y037344D02*
X023463D01*
X02411Y036696D01*
X01779Y0378D02*
X02242D01*
X024256Y037301D02*
Y03735D01*
X022856Y0378D02*
X023806D01*
X024256Y03735D02*
Y037399D01*
X024159Y037496D02*
X024256Y037399D01*
X02411Y037496D02*
X024159D01*
X023806Y0378D02*
X02411Y037496D01*
X022851Y037795D02*
X022856Y0378D01*
X01664Y03665D02*
X01779Y0378D01*
X022425Y037795D02*
X022851D01*
X02242Y0378D02*
X022425Y037795D01*
X01764Y03665D02*
X018334Y037344D01*
X019006Y026394D02*
X020112Y025288D01*
X009926Y02395D02*
X01237Y026394D01*
X00915Y02395D02*
X009926D01*
X00835Y02475D02*
Y0254D01*
Y02475D02*
X00915Y02395D01*
X01237Y026394D02*
X019006D01*
X01664Y02765D02*
X017596Y026694D01*
X00935Y0254D02*
X010644Y026694D01*
X017596D01*
X019706D02*
X021Y0254D01*
X017596Y026694D02*
X019706D01*
D36*
X02199Y013235D02*
D03*
X01909Y013285D02*
D03*
X01624D02*
D03*
X01089Y013235D02*
D03*
X00799Y013285D02*
D03*
X00509D02*
D03*
D37*
X02199Y014285D02*
D03*
X01909D02*
D03*
X01624D02*
D03*
X01089D02*
D03*
X00799D02*
D03*
X00509D02*
D03*
D38*
X024087Y025203D02*
D03*
Y015833D02*
D03*
X014913D02*
D03*
Y025203D02*
D03*
X003263D02*
D03*
Y015833D02*
D03*
X012437D02*
D03*
Y025203D02*
D03*
D39*
X018Y0254D02*
D03*
X00635D02*
D03*
D40*
X02D02*
D03*
X021D02*
D03*
X019D02*
D03*
X00664Y03665D02*
D03*
X00364D02*
D03*
X00864D02*
D03*
X01164D02*
D03*
X01264D02*
D03*
X01764D02*
D03*
X01964D02*
D03*
X02064D02*
D03*
X00464D02*
D03*
X00564D02*
D03*
X00764D02*
D03*
X00964D02*
D03*
X01064D02*
D03*
X01364D02*
D03*
X01464D02*
D03*
X01564D02*
D03*
X01664D02*
D03*
X01864D02*
D03*
X02164D02*
D03*
X00364Y02765D02*
D03*
X00464D02*
D03*
X00564D02*
D03*
X00664D02*
D03*
X00764D02*
D03*
X00864D02*
D03*
X00964D02*
D03*
X01064D02*
D03*
X01164D02*
D03*
X01264D02*
D03*
X01364D02*
D03*
X01464D02*
D03*
X01564D02*
D03*
X01664D02*
D03*
X01764D02*
D03*
X01864D02*
D03*
X01964D02*
D03*
X02064D02*
D03*
X02164D02*
D03*
X00735Y0254D02*
D03*
X00935D02*
D03*
X00835D02*
D03*
D41*
X00426Y04026D02*
D03*
D42*
X00304Y04215D02*
D03*
X005442D02*
D03*
D43*
X0301Y03325D02*
D03*
Y0382D02*
D03*
D44*
X0271Y03325D02*
D03*
Y0382D02*
D03*
D45*
X02594Y041399D02*
D03*
D46*
Y04325D02*
D03*
Y0451D02*
D03*
D47*
X00689Y0452D02*
D03*
D48*
Y03831D02*
D03*
X022638Y0452D02*
D03*
Y03831D02*
D03*
M02*
