G04*
G04 #@! TF.GenerationSoftware,Altium Limited,Altium Designer,21.3.2 (30)*
G04*
G04 Layer_Color=8388736*
%FSTAX24Y24*%
%MOIN*%
G70*
G04*
G04 #@! TF.SameCoordinates,70DC1E10-037C-42C7-9AD5-60C584CD1C3D*
G04*
G04*
G04 #@! TF.FilePolarity,Negative*
G04*
G01*
G75*
%ADD19R,0.0454X0.0611*%
%ADD20R,0.0474X0.0572*%
%ADD21R,0.1080X0.0730*%
%ADD22O,0.1080X0.0730*%
%ADD23C,0.1458*%
%ADD24R,0.0867X0.0867*%
%ADD25C,0.0867*%
%ADD26R,0.1680X0.1080*%
%ADD27R,0.1080X0.1680*%
%ADD28R,0.0671X0.0671*%
%ADD29C,0.0671*%
%ADD30R,0.1300X0.0867*%
%ADD31O,0.1300X0.0867*%
%ADD32R,0.0710X0.0710*%
%ADD33C,0.0710*%
D19*
X02505Y03915D02*
D03*
X025424Y038284D02*
D03*
X024676D02*
D03*
X02505Y035533D02*
D03*
X025424Y034667D02*
D03*
X024676D02*
D03*
D20*
X025044Y03655D02*
D03*
X024256D02*
D03*
X025044Y03735D02*
D03*
X024256D02*
D03*
X017873Y035439D02*
D03*
X017086D02*
D03*
X017873Y034589D02*
D03*
X017086D02*
D03*
X017873Y033789D02*
D03*
X017086D02*
D03*
X017873Y033039D02*
D03*
X017086D02*
D03*
X017873Y032239D02*
D03*
X017086D02*
D03*
X017873Y031439D02*
D03*
X017086D02*
D03*
D21*
X02199Y013235D02*
D03*
X01909Y013285D02*
D03*
X01624D02*
D03*
X01089Y013235D02*
D03*
X00799Y013285D02*
D03*
X00509D02*
D03*
D22*
X02199Y014285D02*
D03*
X01909D02*
D03*
X01624D02*
D03*
X01089D02*
D03*
X00799D02*
D03*
X00509D02*
D03*
D23*
X024087Y025203D02*
D03*
Y015833D02*
D03*
X014913D02*
D03*
Y025203D02*
D03*
X003263D02*
D03*
Y015833D02*
D03*
X012437D02*
D03*
Y025203D02*
D03*
D24*
X018Y0254D02*
D03*
X00635D02*
D03*
D25*
X02D02*
D03*
X021D02*
D03*
X019D02*
D03*
X00664Y03665D02*
D03*
X00364D02*
D03*
X00864D02*
D03*
X01164D02*
D03*
X01264D02*
D03*
X01764D02*
D03*
X01964D02*
D03*
X02064D02*
D03*
X00464D02*
D03*
X00564D02*
D03*
X00764D02*
D03*
X00964D02*
D03*
X01064D02*
D03*
X01364D02*
D03*
X01464D02*
D03*
X01564D02*
D03*
X01664D02*
D03*
X01864D02*
D03*
X02164D02*
D03*
X00364Y02765D02*
D03*
X00464D02*
D03*
X00564D02*
D03*
X00664D02*
D03*
X00764D02*
D03*
X00864D02*
D03*
X00964D02*
D03*
X01064D02*
D03*
X01164D02*
D03*
X01264D02*
D03*
X01364D02*
D03*
X01464D02*
D03*
X01564D02*
D03*
X01664D02*
D03*
X01764D02*
D03*
X01864D02*
D03*
X01964D02*
D03*
X02064D02*
D03*
X02164D02*
D03*
X00735Y0254D02*
D03*
X00935D02*
D03*
X00835D02*
D03*
D26*
X00426Y04026D02*
D03*
D27*
X00304Y04215D02*
D03*
X005442D02*
D03*
D28*
X0301Y03325D02*
D03*
Y0382D02*
D03*
D29*
X0271Y03325D02*
D03*
Y0382D02*
D03*
D30*
X02594Y041399D02*
D03*
D31*
Y04325D02*
D03*
Y0451D02*
D03*
D32*
X00689Y0452D02*
D03*
D33*
Y03831D02*
D03*
X022638Y0452D02*
D03*
Y03831D02*
D03*
M02*
